<mxfile host="app.diagrams.net" modified="2023-04-12T23:06:07.198Z" agent="Mozilla/5.0 (Windows NT 10.0; Win64; x64) AppleWebKit/537.36 (KHTML, like Gecko) Chrome/111.0.0.0 Safari/537.36" etag="UMc1fqY6FRPGzZeG7pAH" version="21.1.7" type="device">
  <diagram id="C5RBs43oDa-KdzZeNtuy" name="Page-1">
    <mxGraphModel dx="5610" dy="3218" grid="1" gridSize="10" guides="1" tooltips="1" connect="1" arrows="1" fold="1" page="1" pageScale="1" pageWidth="827" pageHeight="1169" math="0" shadow="0">
      <root>
        <mxCell id="WIyWlLk6GJQsqaUBKTNV-0" />
        <mxCell id="WIyWlLk6GJQsqaUBKTNV-1" parent="WIyWlLk6GJQsqaUBKTNV-0" />
        <mxCell id="YPm3PpncCEhYX0uplSMa-4" value="ElevatorSubsystem" style="swimlane;fontStyle=1;align=center;verticalAlign=top;childLayout=stackLayout;horizontal=1;startSize=26;horizontalStack=0;resizeParent=1;resizeParentMax=0;resizeLast=0;collapsible=1;marginBottom=0;whiteSpace=wrap;html=1;" parent="WIyWlLk6GJQsqaUBKTNV-1" vertex="1">
          <mxGeometry x="-130" y="46" width="320" height="944" as="geometry" />
        </mxCell>
        <mxCell id="YPm3PpncCEhYX0uplSMa-5" value="&lt;u&gt;+ elevatorAddrName: String&lt;/u&gt;" style="text;strokeColor=none;fillColor=none;align=left;verticalAlign=top;spacingLeft=4;spacingRight=4;overflow=hidden;rotatable=0;points=[[0,0.5],[1,0.5]];portConstraint=eastwest;whiteSpace=wrap;html=1;" parent="YPm3PpncCEhYX0uplSMa-4" vertex="1">
          <mxGeometry y="26" width="320" height="26" as="geometry" />
        </mxCell>
        <mxCell id="YPm3PpncCEhYX0uplSMa-17" value="&lt;u&gt;- elevatorBasePort: int&lt;/u&gt;" style="text;strokeColor=none;fillColor=none;align=left;verticalAlign=top;spacingLeft=4;spacingRight=4;overflow=hidden;rotatable=0;points=[[0,0.5],[1,0.5]];portConstraint=eastwest;whiteSpace=wrap;html=1;" parent="YPm3PpncCEhYX0uplSMa-4" vertex="1">
          <mxGeometry y="52" width="320" height="26" as="geometry" />
        </mxCell>
        <mxCell id="YPm3PpncCEhYX0uplSMa-176" value="&lt;u&gt;- staticID: int&lt;/u&gt;" style="text;strokeColor=none;fillColor=none;align=left;verticalAlign=top;spacingLeft=4;spacingRight=4;overflow=hidden;rotatable=0;points=[[0,0.5],[1,0.5]];portConstraint=eastwest;whiteSpace=wrap;html=1;" parent="YPm3PpncCEhYX0uplSMa-4" vertex="1">
          <mxGeometry y="78" width="320" height="26" as="geometry" />
        </mxCell>
        <mxCell id="YPm3PpncCEhYX0uplSMa-18" value="- elevatorListenerPort: int" style="text;strokeColor=none;fillColor=none;align=left;verticalAlign=top;spacingLeft=4;spacingRight=4;overflow=hidden;rotatable=0;points=[[0,0.5],[1,0.5]];portConstraint=eastwest;whiteSpace=wrap;html=1;" parent="YPm3PpncCEhYX0uplSMa-4" vertex="1">
          <mxGeometry y="104" width="320" height="26" as="geometry" />
        </mxCell>
        <mxCell id="YPm3PpncCEhYX0uplSMa-175" value="- listener: DatagramSocket" style="text;strokeColor=none;fillColor=none;align=left;verticalAlign=top;spacingLeft=4;spacingRight=4;overflow=hidden;rotatable=0;points=[[0,0.5],[1,0.5]];portConstraint=eastwest;whiteSpace=wrap;html=1;" parent="YPm3PpncCEhYX0uplSMa-4" vertex="1">
          <mxGeometry y="130" width="320" height="26" as="geometry" />
        </mxCell>
        <mxCell id="YPm3PpncCEhYX0uplSMa-177" value="- numFloors: int" style="text;strokeColor=none;fillColor=none;align=left;verticalAlign=top;spacingLeft=4;spacingRight=4;overflow=hidden;rotatable=0;points=[[0,0.5],[1,0.5]];portConstraint=eastwest;whiteSpace=wrap;html=1;" parent="YPm3PpncCEhYX0uplSMa-4" vertex="1">
          <mxGeometry y="156" width="320" height="26" as="geometry" />
        </mxCell>
        <mxCell id="YPm3PpncCEhYX0uplSMa-179" value="-&amp;nbsp;floorRequests: byte[]" style="text;strokeColor=none;fillColor=none;align=left;verticalAlign=top;spacingLeft=4;spacingRight=4;overflow=hidden;rotatable=0;points=[[0,0.5],[1,0.5]];portConstraint=eastwest;whiteSpace=wrap;html=1;" parent="YPm3PpncCEhYX0uplSMa-4" vertex="1">
          <mxGeometry y="182" width="320" height="26" as="geometry" />
        </mxCell>
        <mxCell id="YPm3PpncCEhYX0uplSMa-178" value="-&amp;nbsp;elevatorRequests: boolean[]" style="text;strokeColor=none;fillColor=none;align=left;verticalAlign=top;spacingLeft=4;spacingRight=4;overflow=hidden;rotatable=0;points=[[0,0.5],[1,0.5]];portConstraint=eastwest;whiteSpace=wrap;html=1;" parent="YPm3PpncCEhYX0uplSMa-4" vertex="1">
          <mxGeometry y="208" width="320" height="26" as="geometry" />
        </mxCell>
        <mxCell id="YPm3PpncCEhYX0uplSMa-180" value="-&amp;nbsp;running: boolean" style="text;strokeColor=none;fillColor=none;align=left;verticalAlign=top;spacingLeft=4;spacingRight=4;overflow=hidden;rotatable=0;points=[[0,0.5],[1,0.5]];portConstraint=eastwest;whiteSpace=wrap;html=1;" parent="YPm3PpncCEhYX0uplSMa-4" vertex="1">
          <mxGeometry y="234" width="320" height="26" as="geometry" />
        </mxCell>
        <mxCell id="YPm3PpncCEhYX0uplSMa-16" value="- id: int" style="text;strokeColor=none;fillColor=none;align=left;verticalAlign=top;spacingLeft=4;spacingRight=4;overflow=hidden;rotatable=0;points=[[0,0.5],[1,0.5]];portConstraint=eastwest;whiteSpace=wrap;html=1;" parent="YPm3PpncCEhYX0uplSMa-4" vertex="1">
          <mxGeometry y="260" width="320" height="26" as="geometry" />
        </mxCell>
        <mxCell id="YPm3PpncCEhYX0uplSMa-6" value="" style="line;strokeWidth=1;fillColor=none;align=left;verticalAlign=middle;spacingTop=-1;spacingLeft=3;spacingRight=3;rotatable=0;labelPosition=right;points=[];portConstraint=eastwest;strokeColor=inherit;" parent="YPm3PpncCEhYX0uplSMa-4" vertex="1">
          <mxGeometry y="286" width="320" height="8" as="geometry" />
        </mxCell>
        <mxCell id="YPm3PpncCEhYX0uplSMa-7" value="&lt;u&gt;- getNextID(): int&lt;/u&gt;" style="text;strokeColor=none;fillColor=none;align=left;verticalAlign=top;spacingLeft=4;spacingRight=4;overflow=hidden;rotatable=0;points=[[0,0.5],[1,0.5]];portConstraint=eastwest;whiteSpace=wrap;html=1;" parent="YPm3PpncCEhYX0uplSMa-4" vertex="1">
          <mxGeometry y="294" width="320" height="26" as="geometry" />
        </mxCell>
        <mxCell id="YPm3PpncCEhYX0uplSMa-8" value="+ changeState(ElevatorState state): void" style="text;strokeColor=none;fillColor=none;align=left;verticalAlign=top;spacingLeft=4;spacingRight=4;overflow=hidden;rotatable=0;points=[[0,0.5],[1,0.5]];portConstraint=eastwest;whiteSpace=wrap;html=1;" parent="YPm3PpncCEhYX0uplSMa-4" vertex="1">
          <mxGeometry y="320" width="320" height="26" as="geometry" />
        </mxCell>
        <mxCell id="YPm3PpncCEhYX0uplSMa-9" value="+ addFloorRequest(int floorNum, boolean isUp): boolean" style="text;strokeColor=none;fillColor=none;align=left;verticalAlign=top;spacingLeft=4;spacingRight=4;overflow=hidden;rotatable=0;points=[[0,0.5],[1,0.5]];portConstraint=eastwest;whiteSpace=wrap;html=1;" parent="YPm3PpncCEhYX0uplSMa-4" vertex="1">
          <mxGeometry y="346" width="320" height="26" as="geometry" />
        </mxCell>
        <mxCell id="YPm3PpncCEhYX0uplSMa-11" value="+ addElevatorRequest(int floorNum): boolean" style="text;strokeColor=none;fillColor=none;align=left;verticalAlign=top;spacingLeft=4;spacingRight=4;overflow=hidden;rotatable=0;points=[[0,0.5],[1,0.5]];portConstraint=eastwest;whiteSpace=wrap;html=1;" parent="YPm3PpncCEhYX0uplSMa-4" vertex="1">
          <mxGeometry y="372" width="320" height="26" as="geometry" />
        </mxCell>
        <mxCell id="YPm3PpncCEhYX0uplSMa-14" value="+ getLocalTask(): int" style="text;strokeColor=none;fillColor=none;align=left;verticalAlign=top;spacingLeft=4;spacingRight=4;overflow=hidden;rotatable=0;points=[[0,0.5],[1,0.5]];portConstraint=eastwest;whiteSpace=wrap;html=1;" parent="YPm3PpncCEhYX0uplSMa-4" vertex="1">
          <mxGeometry y="398" width="320" height="26" as="geometry" />
        </mxCell>
        <mxCell id="YPm3PpncCEhYX0uplSMa-15" value="+&amp;nbsp;getServingDirection(): boolean" style="text;strokeColor=none;fillColor=none;align=left;verticalAlign=top;spacingLeft=4;spacingRight=4;overflow=hidden;rotatable=0;points=[[0,0.5],[1,0.5]];portConstraint=eastwest;whiteSpace=wrap;html=1;" parent="YPm3PpncCEhYX0uplSMa-4" vertex="1">
          <mxGeometry y="424" width="320" height="26" as="geometry" />
        </mxCell>
        <mxCell id="YPm3PpncCEhYX0uplSMa-13" value="+&amp;nbsp;getNextDestination(boolean servingUp): int" style="text;strokeColor=none;fillColor=none;align=left;verticalAlign=top;spacingLeft=4;spacingRight=4;overflow=hidden;rotatable=0;points=[[0,0.5],[1,0.5]];portConstraint=eastwest;whiteSpace=wrap;html=1;" parent="YPm3PpncCEhYX0uplSMa-4" vertex="1">
          <mxGeometry y="450" width="320" height="26" as="geometry" />
        </mxCell>
        <mxCell id="YPm3PpncCEhYX0uplSMa-12" value="+ checkFloor(): boolean" style="text;strokeColor=none;fillColor=none;align=left;verticalAlign=top;spacingLeft=4;spacingRight=4;overflow=hidden;rotatable=0;points=[[0,0.5],[1,0.5]];portConstraint=eastwest;whiteSpace=wrap;html=1;" parent="YPm3PpncCEhYX0uplSMa-4" vertex="1">
          <mxGeometry y="476" width="320" height="26" as="geometry" />
        </mxCell>
        <mxCell id="YPm3PpncCEhYX0uplSMa-10" value="+&amp;nbsp;requestElevatorButtons(): void" style="text;strokeColor=none;fillColor=none;align=left;verticalAlign=top;spacingLeft=4;spacingRight=4;overflow=hidden;rotatable=0;points=[[0,0.5],[1,0.5]];portConstraint=eastwest;whiteSpace=wrap;html=1;" parent="YPm3PpncCEhYX0uplSMa-4" vertex="1">
          <mxGeometry y="502" width="320" height="26" as="geometry" />
        </mxCell>
        <mxCell id="YPm3PpncCEhYX0uplSMa-181" value="+&amp;nbsp;handleNewTask(boolean isUp): void" style="text;strokeColor=none;fillColor=none;align=left;verticalAlign=top;spacingLeft=4;spacingRight=4;overflow=hidden;rotatable=0;points=[[0,0.5],[1,0.5]];portConstraint=eastwest;whiteSpace=wrap;html=1;" parent="YPm3PpncCEhYX0uplSMa-4" vertex="1">
          <mxGeometry y="528" width="320" height="26" as="geometry" />
        </mxCell>
        <mxCell id="YPm3PpncCEhYX0uplSMa-182" value="+&amp;nbsp;handleArrivalSensor(): void" style="text;strokeColor=none;fillColor=none;align=left;verticalAlign=top;spacingLeft=4;spacingRight=4;overflow=hidden;rotatable=0;points=[[0,0.5],[1,0.5]];portConstraint=eastwest;whiteSpace=wrap;html=1;" parent="YPm3PpncCEhYX0uplSMa-4" vertex="1">
          <mxGeometry y="554" width="320" height="26" as="geometry" />
        </mxCell>
        <mxCell id="YPm3PpncCEhYX0uplSMa-183" value="+&amp;nbsp;moveElevator(int floor): void" style="text;strokeColor=none;fillColor=none;align=left;verticalAlign=top;spacingLeft=4;spacingRight=4;overflow=hidden;rotatable=0;points=[[0,0.5],[1,0.5]];portConstraint=eastwest;whiteSpace=wrap;html=1;" parent="YPm3PpncCEhYX0uplSMa-4" vertex="1">
          <mxGeometry y="580" width="320" height="26" as="geometry" />
        </mxCell>
        <mxCell id="YPm3PpncCEhYX0uplSMa-184" value="+&amp;nbsp;getCurrentFloor(): int" style="text;strokeColor=none;fillColor=none;align=left;verticalAlign=top;spacingLeft=4;spacingRight=4;overflow=hidden;rotatable=0;points=[[0,0.5],[1,0.5]];portConstraint=eastwest;whiteSpace=wrap;html=1;" parent="YPm3PpncCEhYX0uplSMa-4" vertex="1">
          <mxGeometry y="606" width="320" height="26" as="geometry" />
        </mxCell>
        <mxCell id="YPm3PpncCEhYX0uplSMa-186" value="+&amp;nbsp;getID(): int" style="text;strokeColor=none;fillColor=none;align=left;verticalAlign=top;spacingLeft=4;spacingRight=4;overflow=hidden;rotatable=0;points=[[0,0.5],[1,0.5]];portConstraint=eastwest;whiteSpace=wrap;html=1;" parent="YPm3PpncCEhYX0uplSMa-4" vertex="1">
          <mxGeometry y="632" width="320" height="26" as="geometry" />
        </mxCell>
        <mxCell id="YPm3PpncCEhYX0uplSMa-188" value="+&amp;nbsp;getListenerPort(): int" style="text;strokeColor=none;fillColor=none;align=left;verticalAlign=top;spacingLeft=4;spacingRight=4;overflow=hidden;rotatable=0;points=[[0,0.5],[1,0.5]];portConstraint=eastwest;whiteSpace=wrap;html=1;" parent="YPm3PpncCEhYX0uplSMa-4" vertex="1">
          <mxGeometry y="658" width="320" height="26" as="geometry" />
        </mxCell>
        <mxCell id="YPm3PpncCEhYX0uplSMa-187" value="+&amp;nbsp;getNumFloors(): int" style="text;strokeColor=none;fillColor=none;align=left;verticalAlign=top;spacingLeft=4;spacingRight=4;overflow=hidden;rotatable=0;points=[[0,0.5],[1,0.5]];portConstraint=eastwest;whiteSpace=wrap;html=1;" parent="YPm3PpncCEhYX0uplSMa-4" vertex="1">
          <mxGeometry y="684" width="320" height="26" as="geometry" />
        </mxCell>
        <mxCell id="YPm3PpncCEhYX0uplSMa-185" value="+&amp;nbsp;hasMoreRequests(): boolean" style="text;strokeColor=none;fillColor=none;align=left;verticalAlign=top;spacingLeft=4;spacingRight=4;overflow=hidden;rotatable=0;points=[[0,0.5],[1,0.5]];portConstraint=eastwest;whiteSpace=wrap;html=1;" parent="YPm3PpncCEhYX0uplSMa-4" vertex="1">
          <mxGeometry y="710" width="320" height="26" as="geometry" />
        </mxCell>
        <mxCell id="YPm3PpncCEhYX0uplSMa-189" value="+&amp;nbsp;enableStop(): void" style="text;strokeColor=none;fillColor=none;align=left;verticalAlign=top;spacingLeft=4;spacingRight=4;overflow=hidden;rotatable=0;points=[[0,0.5],[1,0.5]];portConstraint=eastwest;whiteSpace=wrap;html=1;" parent="YPm3PpncCEhYX0uplSMa-4" vertex="1">
          <mxGeometry y="736" width="320" height="26" as="geometry" />
        </mxCell>
        <mxCell id="YPm3PpncCEhYX0uplSMa-190" value="+&amp;nbsp;setElevator(Elevator newElevator): void" style="text;strokeColor=none;fillColor=none;align=left;verticalAlign=top;spacingLeft=4;spacingRight=4;overflow=hidden;rotatable=0;points=[[0,0.5],[1,0.5]];portConstraint=eastwest;whiteSpace=wrap;html=1;" parent="YPm3PpncCEhYX0uplSMa-4" vertex="1">
          <mxGeometry y="762" width="320" height="26" as="geometry" />
        </mxCell>
        <mxCell id="YPm3PpncCEhYX0uplSMa-191" value="+&amp;nbsp;printState(): void" style="text;strokeColor=none;fillColor=none;align=left;verticalAlign=top;spacingLeft=4;spacingRight=4;overflow=hidden;rotatable=0;points=[[0,0.5],[1,0.5]];portConstraint=eastwest;whiteSpace=wrap;html=1;" parent="YPm3PpncCEhYX0uplSMa-4" vertex="1">
          <mxGeometry y="788" width="320" height="26" as="geometry" />
        </mxCell>
        <mxCell id="YPm3PpncCEhYX0uplSMa-192" value="+&amp;nbsp;kill(): void" style="text;strokeColor=none;fillColor=none;align=left;verticalAlign=top;spacingLeft=4;spacingRight=4;overflow=hidden;rotatable=0;points=[[0,0.5],[1,0.5]];portConstraint=eastwest;whiteSpace=wrap;html=1;" parent="YPm3PpncCEhYX0uplSMa-4" vertex="1">
          <mxGeometry y="814" width="320" height="26" as="geometry" />
        </mxCell>
        <mxCell id="YPm3PpncCEhYX0uplSMa-193" value="+&amp;nbsp;notifyScheduler(States stateEnum): void" style="text;strokeColor=none;fillColor=none;align=left;verticalAlign=top;spacingLeft=4;spacingRight=4;overflow=hidden;rotatable=0;points=[[0,0.5],[1,0.5]];portConstraint=eastwest;whiteSpace=wrap;html=1;" parent="YPm3PpncCEhYX0uplSMa-4" vertex="1">
          <mxGeometry y="840" width="320" height="26" as="geometry" />
        </mxCell>
        <mxCell id="YPm3PpncCEhYX0uplSMa-194" value="+&amp;nbsp;sync(): boolean" style="text;strokeColor=none;fillColor=none;align=left;verticalAlign=top;spacingLeft=4;spacingRight=4;overflow=hidden;rotatable=0;points=[[0,0.5],[1,0.5]];portConstraint=eastwest;whiteSpace=wrap;html=1;" parent="YPm3PpncCEhYX0uplSMa-4" vertex="1">
          <mxGeometry y="866" width="320" height="26" as="geometry" />
        </mxCell>
        <mxCell id="YPm3PpncCEhYX0uplSMa-195" value="+&amp;nbsp;listener(): void" style="text;strokeColor=none;fillColor=none;align=left;verticalAlign=top;spacingLeft=4;spacingRight=4;overflow=hidden;rotatable=0;points=[[0,0.5],[1,0.5]];portConstraint=eastwest;whiteSpace=wrap;html=1;" parent="YPm3PpncCEhYX0uplSMa-4" vertex="1">
          <mxGeometry y="892" width="320" height="26" as="geometry" />
        </mxCell>
        <mxCell id="YPm3PpncCEhYX0uplSMa-274" value="+&amp;nbsp;run(): void" style="text;strokeColor=none;fillColor=none;align=left;verticalAlign=top;spacingLeft=4;spacingRight=4;overflow=hidden;rotatable=0;points=[[0,0.5],[1,0.5]];portConstraint=eastwest;whiteSpace=wrap;html=1;" parent="YPm3PpncCEhYX0uplSMa-4" vertex="1">
          <mxGeometry y="918" width="320" height="26" as="geometry" />
        </mxCell>
        <mxCell id="YPm3PpncCEhYX0uplSMa-21" value="Elevator" style="swimlane;fontStyle=1;align=center;verticalAlign=top;childLayout=stackLayout;horizontal=1;startSize=26;horizontalStack=0;resizeParent=1;resizeParentMax=0;resizeLast=0;collapsible=1;marginBottom=0;whiteSpace=wrap;html=1;" parent="WIyWlLk6GJQsqaUBKTNV-1" vertex="1">
          <mxGeometry x="-480" y="46" width="290" height="424" as="geometry" />
        </mxCell>
        <mxCell id="YPm3PpncCEhYX0uplSMa-22" value="- level: int" style="text;strokeColor=none;fillColor=none;align=left;verticalAlign=top;spacingLeft=4;spacingRight=4;overflow=hidden;rotatable=0;points=[[0,0.5],[1,0.5]];portConstraint=eastwest;whiteSpace=wrap;html=1;" parent="YPm3PpncCEhYX0uplSMa-21" vertex="1">
          <mxGeometry y="26" width="290" height="26" as="geometry" />
        </mxCell>
        <mxCell id="YPm3PpncCEhYX0uplSMa-23" value="- stop: boolean" style="text;strokeColor=none;fillColor=none;align=left;verticalAlign=top;spacingLeft=4;spacingRight=4;overflow=hidden;rotatable=0;points=[[0,0.5],[1,0.5]];portConstraint=eastwest;whiteSpace=wrap;html=1;" parent="YPm3PpncCEhYX0uplSMa-21" vertex="1">
          <mxGeometry y="52" width="290" height="26" as="geometry" />
        </mxCell>
        <mxCell id="YPm3PpncCEhYX0uplSMa-24" value="- directionLamps: int[]" style="text;strokeColor=none;fillColor=none;align=left;verticalAlign=top;spacingLeft=4;spacingRight=4;overflow=hidden;rotatable=0;points=[[0,0.5],[1,0.5]];portConstraint=eastwest;whiteSpace=wrap;html=1;" parent="YPm3PpncCEhYX0uplSMa-21" vertex="1">
          <mxGeometry y="78" width="290" height="26" as="geometry" />
        </mxCell>
        <mxCell id="YPm3PpncCEhYX0uplSMa-25" value="- buttonLamps: boolean[]" style="text;strokeColor=none;fillColor=none;align=left;verticalAlign=top;spacingLeft=4;spacingRight=4;overflow=hidden;rotatable=0;points=[[0,0.5],[1,0.5]];portConstraint=eastwest;whiteSpace=wrap;html=1;" parent="YPm3PpncCEhYX0uplSMa-21" vertex="1">
          <mxGeometry y="104" width="290" height="26" as="geometry" />
        </mxCell>
        <mxCell id="YPm3PpncCEhYX0uplSMa-26" value="" style="line;strokeWidth=1;fillColor=none;align=left;verticalAlign=middle;spacingTop=-1;spacingLeft=3;spacingRight=3;rotatable=0;labelPosition=right;points=[];portConstraint=eastwest;strokeColor=inherit;" parent="YPm3PpncCEhYX0uplSMa-21" vertex="1">
          <mxGeometry y="130" width="290" height="8" as="geometry" />
        </mxCell>
        <mxCell id="YPm3PpncCEhYX0uplSMa-27" value="+ move(int position): void" style="text;strokeColor=none;fillColor=none;align=left;verticalAlign=top;spacingLeft=4;spacingRight=4;overflow=hidden;rotatable=0;points=[[0,0.5],[1,0.5]];portConstraint=eastwest;whiteSpace=wrap;html=1;" parent="YPm3PpncCEhYX0uplSMa-21" vertex="1">
          <mxGeometry y="138" width="290" height="26" as="geometry" />
        </mxCell>
        <mxCell id="YPm3PpncCEhYX0uplSMa-28" value="+ enableStop(): void" style="text;strokeColor=none;fillColor=none;align=left;verticalAlign=top;spacingLeft=4;spacingRight=4;overflow=hidden;rotatable=0;points=[[0,0.5],[1,0.5]];portConstraint=eastwest;whiteSpace=wrap;html=1;" parent="YPm3PpncCEhYX0uplSMa-21" vertex="1">
          <mxGeometry y="164" width="290" height="26" as="geometry" />
        </mxCell>
        <mxCell id="YPm3PpncCEhYX0uplSMa-29" value="+ disableStop(): void" style="text;strokeColor=none;fillColor=none;align=left;verticalAlign=top;spacingLeft=4;spacingRight=4;overflow=hidden;rotatable=0;points=[[0,0.5],[1,0.5]];portConstraint=eastwest;whiteSpace=wrap;html=1;" parent="YPm3PpncCEhYX0uplSMa-21" vertex="1">
          <mxGeometry y="190" width="290" height="26" as="geometry" />
        </mxCell>
        <mxCell id="YPm3PpncCEhYX0uplSMa-30" value="+ getLevel(): int" style="text;strokeColor=none;fillColor=none;align=left;verticalAlign=top;spacingLeft=4;spacingRight=4;overflow=hidden;rotatable=0;points=[[0,0.5],[1,0.5]];portConstraint=eastwest;whiteSpace=wrap;html=1;" parent="YPm3PpncCEhYX0uplSMa-21" vertex="1">
          <mxGeometry y="216" width="290" height="26" as="geometry" />
        </mxCell>
        <mxCell id="YPm3PpncCEhYX0uplSMa-31" value="+ isStopped(): boolean" style="text;strokeColor=none;fillColor=none;align=left;verticalAlign=top;spacingLeft=4;spacingRight=4;overflow=hidden;rotatable=0;points=[[0,0.5],[1,0.5]];portConstraint=eastwest;whiteSpace=wrap;html=1;" parent="YPm3PpncCEhYX0uplSMa-21" vertex="1">
          <mxGeometry y="242" width="290" height="26" as="geometry" />
        </mxCell>
        <mxCell id="YPm3PpncCEhYX0uplSMa-32" value="+&amp;nbsp;enableDirectionLamp(int floor, boolean is up): void" style="text;strokeColor=none;fillColor=none;align=left;verticalAlign=top;spacingLeft=4;spacingRight=4;overflow=hidden;rotatable=0;points=[[0,0.5],[1,0.5]];portConstraint=eastwest;whiteSpace=wrap;html=1;" parent="YPm3PpncCEhYX0uplSMa-21" vertex="1">
          <mxGeometry y="268" width="290" height="26" as="geometry" />
        </mxCell>
        <mxCell id="YPm3PpncCEhYX0uplSMa-33" value="+&amp;nbsp;disableDirectionLamps(): void" style="text;strokeColor=none;fillColor=none;align=left;verticalAlign=top;spacingLeft=4;spacingRight=4;overflow=hidden;rotatable=0;points=[[0,0.5],[1,0.5]];portConstraint=eastwest;whiteSpace=wrap;html=1;" parent="YPm3PpncCEhYX0uplSMa-21" vertex="1">
          <mxGeometry y="294" width="290" height="26" as="geometry" />
        </mxCell>
        <mxCell id="YPm3PpncCEhYX0uplSMa-34" value="+ getDirectionLamp(int floor): int" style="text;strokeColor=none;fillColor=none;align=left;verticalAlign=top;spacingLeft=4;spacingRight=4;overflow=hidden;rotatable=0;points=[[0,0.5],[1,0.5]];portConstraint=eastwest;whiteSpace=wrap;html=1;" parent="YPm3PpncCEhYX0uplSMa-21" vertex="1">
          <mxGeometry y="320" width="290" height="26" as="geometry" />
        </mxCell>
        <mxCell id="YPm3PpncCEhYX0uplSMa-173" value="+ enableButtonLamp(int floor): void" style="text;strokeColor=none;fillColor=none;align=left;verticalAlign=top;spacingLeft=4;spacingRight=4;overflow=hidden;rotatable=0;points=[[0,0.5],[1,0.5]];portConstraint=eastwest;whiteSpace=wrap;html=1;" parent="YPm3PpncCEhYX0uplSMa-21" vertex="1">
          <mxGeometry y="346" width="290" height="26" as="geometry" />
        </mxCell>
        <mxCell id="YPm3PpncCEhYX0uplSMa-35" value="+ disableButtonLamp(int floor): void" style="text;strokeColor=none;fillColor=none;align=left;verticalAlign=top;spacingLeft=4;spacingRight=4;overflow=hidden;rotatable=0;points=[[0,0.5],[1,0.5]];portConstraint=eastwest;whiteSpace=wrap;html=1;" parent="YPm3PpncCEhYX0uplSMa-21" vertex="1">
          <mxGeometry y="372" width="290" height="26" as="geometry" />
        </mxCell>
        <mxCell id="YPm3PpncCEhYX0uplSMa-174" value="+ getButtonLamp(int floor): boolean" style="text;strokeColor=none;fillColor=none;align=left;verticalAlign=top;spacingLeft=4;spacingRight=4;overflow=hidden;rotatable=0;points=[[0,0.5],[1,0.5]];portConstraint=eastwest;whiteSpace=wrap;html=1;" parent="YPm3PpncCEhYX0uplSMa-21" vertex="1">
          <mxGeometry y="398" width="290" height="26" as="geometry" />
        </mxCell>
        <mxCell id="YPm3PpncCEhYX0uplSMa-36" value="&amp;lt;&amp;lt;Control&amp;gt;&amp;gt;&lt;br&gt;Scheduler" style="swimlane;fontStyle=1;align=center;verticalAlign=top;childLayout=stackLayout;horizontal=1;startSize=40;horizontalStack=0;resizeParent=1;resizeParentMax=0;resizeLast=0;collapsible=1;marginBottom=0;whiteSpace=wrap;html=1;" parent="WIyWlLk6GJQsqaUBKTNV-1" vertex="1">
          <mxGeometry x="560" y="40" width="310" height="704" as="geometry" />
        </mxCell>
        <mxCell id="YPm3PpncCEhYX0uplSMa-228" value="&lt;u&gt;+ schedulerAddrName: String&lt;/u&gt;" style="text;strokeColor=none;fillColor=none;align=left;verticalAlign=top;spacingLeft=4;spacingRight=4;overflow=hidden;rotatable=0;points=[[0,0.5],[1,0.5]];portConstraint=eastwest;whiteSpace=wrap;html=1;" parent="YPm3PpncCEhYX0uplSMa-36" vertex="1">
          <mxGeometry y="40" width="310" height="26" as="geometry" />
        </mxCell>
        <mxCell id="YPm3PpncCEhYX0uplSMa-229" value="&lt;u&gt;+ schedulerListenerPort: int&lt;/u&gt;" style="text;strokeColor=none;fillColor=none;align=left;verticalAlign=top;spacingLeft=4;spacingRight=4;overflow=hidden;rotatable=0;points=[[0,0.5],[1,0.5]];portConstraint=eastwest;whiteSpace=wrap;html=1;" parent="YPm3PpncCEhYX0uplSMa-36" vertex="1">
          <mxGeometry y="66" width="310" height="26" as="geometry" />
        </mxCell>
        <mxCell id="YPm3PpncCEhYX0uplSMa-37" value="- numFloors: int" style="text;strokeColor=none;fillColor=none;align=left;verticalAlign=top;spacingLeft=4;spacingRight=4;overflow=hidden;rotatable=0;points=[[0,0.5],[1,0.5]];portConstraint=eastwest;whiteSpace=wrap;html=1;" parent="YPm3PpncCEhYX0uplSMa-36" vertex="1">
          <mxGeometry y="92" width="310" height="26" as="geometry" />
        </mxCell>
        <mxCell id="YPm3PpncCEhYX0uplSMa-38" value="- upRequests: boolean[]" style="text;strokeColor=none;fillColor=none;align=left;verticalAlign=top;spacingLeft=4;spacingRight=4;overflow=hidden;rotatable=0;points=[[0,0.5],[1,0.5]];portConstraint=eastwest;whiteSpace=wrap;html=1;" parent="YPm3PpncCEhYX0uplSMa-36" vertex="1">
          <mxGeometry y="118" width="310" height="26" as="geometry" />
        </mxCell>
        <mxCell id="YPm3PpncCEhYX0uplSMa-230" value="- downRequests: boolean[]" style="text;strokeColor=none;fillColor=none;align=left;verticalAlign=top;spacingLeft=4;spacingRight=4;overflow=hidden;rotatable=0;points=[[0,0.5],[1,0.5]];portConstraint=eastwest;whiteSpace=wrap;html=1;" parent="YPm3PpncCEhYX0uplSMa-36" vertex="1">
          <mxGeometry y="144" width="310" height="26" as="geometry" />
        </mxCell>
        <mxCell id="YPm3PpncCEhYX0uplSMa-39" value="- running: boolean" style="text;strokeColor=none;fillColor=none;align=left;verticalAlign=top;spacingLeft=4;spacingRight=4;overflow=hidden;rotatable=0;points=[[0,0.5],[1,0.5]];portConstraint=eastwest;whiteSpace=wrap;html=1;" parent="YPm3PpncCEhYX0uplSMa-36" vertex="1">
          <mxGeometry y="170" width="310" height="26" as="geometry" />
        </mxCell>
        <mxCell id="YPm3PpncCEhYX0uplSMa-231" value="-&amp;nbsp;upElevatorRequests: ArrayList&amp;lt;ArrayList&amp;lt;Integer&amp;gt;&amp;gt;" style="text;strokeColor=none;fillColor=none;align=left;verticalAlign=top;spacingLeft=4;spacingRight=4;overflow=hidden;rotatable=0;points=[[0,0.5],[1,0.5]];portConstraint=eastwest;whiteSpace=wrap;html=1;" parent="YPm3PpncCEhYX0uplSMa-36" vertex="1">
          <mxGeometry y="196" width="310" height="26" as="geometry" />
        </mxCell>
        <mxCell id="YPm3PpncCEhYX0uplSMa-232" value="- downElevatorRequests: ArrayList&amp;lt;ArrayList&amp;lt;Integer&amp;gt;&amp;gt;" style="text;strokeColor=none;fillColor=none;align=left;verticalAlign=top;spacingLeft=4;spacingRight=4;overflow=hidden;rotatable=0;points=[[0,0.5],[1,0.5]];portConstraint=eastwest;whiteSpace=wrap;html=1;" parent="YPm3PpncCEhYX0uplSMa-36" vertex="1">
          <mxGeometry y="222" width="310" height="26" as="geometry" />
        </mxCell>
        <mxCell id="YPm3PpncCEhYX0uplSMa-40" value="- elevatorList: ArrayList&amp;lt;int[]&amp;gt;" style="text;strokeColor=none;fillColor=none;align=left;verticalAlign=top;spacingLeft=4;spacingRight=4;overflow=hidden;rotatable=0;points=[[0,0.5],[1,0.5]];portConstraint=eastwest;whiteSpace=wrap;html=1;" parent="YPm3PpncCEhYX0uplSMa-36" vertex="1">
          <mxGeometry y="248" width="310" height="26" as="geometry" />
        </mxCell>
        <mxCell id="YPm3PpncCEhYX0uplSMa-234" value="- dispatchThread: Thread" style="text;strokeColor=none;fillColor=none;align=left;verticalAlign=top;spacingLeft=4;spacingRight=4;overflow=hidden;rotatable=0;points=[[0,0.5],[1,0.5]];portConstraint=eastwest;whiteSpace=wrap;html=1;" parent="YPm3PpncCEhYX0uplSMa-36" vertex="1">
          <mxGeometry y="274" width="310" height="26" as="geometry" />
        </mxCell>
        <mxCell id="YPm3PpncCEhYX0uplSMa-236" value="- sendPacket: DatagramPacket" style="text;strokeColor=none;fillColor=none;align=left;verticalAlign=top;spacingLeft=4;spacingRight=4;overflow=hidden;rotatable=0;points=[[0,0.5],[1,0.5]];portConstraint=eastwest;whiteSpace=wrap;html=1;" parent="YPm3PpncCEhYX0uplSMa-36" vertex="1">
          <mxGeometry y="300" width="310" height="26" as="geometry" />
        </mxCell>
        <mxCell id="YPm3PpncCEhYX0uplSMa-239" value="- receivePacket: DatagramPacket" style="text;strokeColor=none;fillColor=none;align=left;verticalAlign=top;spacingLeft=4;spacingRight=4;overflow=hidden;rotatable=0;points=[[0,0.5],[1,0.5]];portConstraint=eastwest;whiteSpace=wrap;html=1;" parent="YPm3PpncCEhYX0uplSMa-36" vertex="1">
          <mxGeometry y="326" width="310" height="26" as="geometry" />
        </mxCell>
        <mxCell id="YPm3PpncCEhYX0uplSMa-240" value="- sendReceiveSocket: DatagramSocket" style="text;strokeColor=none;fillColor=none;align=left;verticalAlign=top;spacingLeft=4;spacingRight=4;overflow=hidden;rotatable=0;points=[[0,0.5],[1,0.5]];portConstraint=eastwest;whiteSpace=wrap;html=1;" parent="YPm3PpncCEhYX0uplSMa-36" vertex="1">
          <mxGeometry y="352" width="310" height="26" as="geometry" />
        </mxCell>
        <mxCell id="YPm3PpncCEhYX0uplSMa-241" value="- receiveSocket: DatagramSocket" style="text;strokeColor=none;fillColor=none;align=left;verticalAlign=top;spacingLeft=4;spacingRight=4;overflow=hidden;rotatable=0;points=[[0,0.5],[1,0.5]];portConstraint=eastwest;whiteSpace=wrap;html=1;" parent="YPm3PpncCEhYX0uplSMa-36" vertex="1">
          <mxGeometry y="378" width="310" height="26" as="geometry" />
        </mxCell>
        <mxCell id="YPm3PpncCEhYX0uplSMa-41" value="" style="line;strokeWidth=1;fillColor=none;align=left;verticalAlign=middle;spacingTop=-1;spacingLeft=3;spacingRight=3;rotatable=0;labelPosition=right;points=[];portConstraint=eastwest;strokeColor=inherit;" parent="YPm3PpncCEhYX0uplSMa-36" vertex="1">
          <mxGeometry y="404" width="310" height="8" as="geometry" />
        </mxCell>
        <mxCell id="YPm3PpncCEhYX0uplSMa-46" value="- handleElevatorArrival(byte floor, byte direction): ArrayList&amp;lt;Integer&amp;gt;" style="text;strokeColor=none;fillColor=none;align=left;verticalAlign=top;spacingLeft=4;spacingRight=4;overflow=hidden;rotatable=0;points=[[0,0.5],[1,0.5]];portConstraint=eastwest;whiteSpace=wrap;html=1;" parent="YPm3PpncCEhYX0uplSMa-36" vertex="1">
          <mxGeometry y="412" width="310" height="32" as="geometry" />
        </mxCell>
        <mxCell id="YPm3PpncCEhYX0uplSMa-42" value="+&amp;nbsp;checkFloor(int floorNum, boolean up): boolean" style="text;strokeColor=none;fillColor=none;align=left;verticalAlign=top;spacingLeft=4;spacingRight=4;overflow=hidden;rotatable=0;points=[[0,0.5],[1,0.5]];portConstraint=eastwest;whiteSpace=wrap;html=1;" parent="YPm3PpncCEhYX0uplSMa-36" vertex="1">
          <mxGeometry y="444" width="310" height="26" as="geometry" />
        </mxCell>
        <mxCell id="YPm3PpncCEhYX0uplSMa-43" value="+ getNumFloors(): int" style="text;strokeColor=none;fillColor=none;align=left;verticalAlign=top;spacingLeft=4;spacingRight=4;overflow=hidden;rotatable=0;points=[[0,0.5],[1,0.5]];portConstraint=eastwest;whiteSpace=wrap;html=1;" parent="YPm3PpncCEhYX0uplSMa-36" vertex="1">
          <mxGeometry y="470" width="310" height="26" as="geometry" />
        </mxCell>
        <mxCell id="YPm3PpncCEhYX0uplSMa-44" value="+ isRunning(): boolean" style="text;strokeColor=none;fillColor=none;align=left;verticalAlign=top;spacingLeft=4;spacingRight=4;overflow=hidden;rotatable=0;points=[[0,0.5],[1,0.5]];portConstraint=eastwest;whiteSpace=wrap;html=1;" parent="YPm3PpncCEhYX0uplSMa-36" vertex="1">
          <mxGeometry y="496" width="310" height="26" as="geometry" />
        </mxCell>
        <mxCell id="YPm3PpncCEhYX0uplSMa-45" value="+ checkFloor(int floorNum): boolean" style="text;strokeColor=none;fillColor=none;align=left;verticalAlign=top;spacingLeft=4;spacingRight=4;overflow=hidden;rotatable=0;points=[[0,0.5],[1,0.5]];portConstraint=eastwest;whiteSpace=wrap;html=1;" parent="YPm3PpncCEhYX0uplSMa-36" vertex="1">
          <mxGeometry y="522" width="310" height="26" as="geometry" />
        </mxCell>
        <mxCell id="YPm3PpncCEhYX0uplSMa-47" value="+&amp;nbsp;handleFloorRequest(byte b, byte c): boolean" style="text;strokeColor=none;fillColor=none;align=left;verticalAlign=top;spacingLeft=4;spacingRight=4;overflow=hidden;rotatable=0;points=[[0,0.5],[1,0.5]];portConstraint=eastwest;whiteSpace=wrap;html=1;" parent="YPm3PpncCEhYX0uplSMa-36" vertex="1">
          <mxGeometry y="548" width="310" height="26" as="geometry" />
        </mxCell>
        <mxCell id="YPm3PpncCEhYX0uplSMa-48" value="+&amp;nbsp;handleElevatorSync(byte b, int port): boolean" style="text;strokeColor=none;fillColor=none;align=left;verticalAlign=top;spacingLeft=4;spacingRight=4;overflow=hidden;rotatable=0;points=[[0,0.5],[1,0.5]];portConstraint=eastwest;whiteSpace=wrap;html=1;" parent="YPm3PpncCEhYX0uplSMa-36" vertex="1">
          <mxGeometry y="574" width="310" height="26" as="geometry" />
        </mxCell>
        <mxCell id="YPm3PpncCEhYX0uplSMa-49" value="+&amp;nbsp;handleElevatorUpdate(byte b, byte c, byte d): boolean" style="text;strokeColor=none;fillColor=none;align=left;verticalAlign=top;spacingLeft=4;spacingRight=4;overflow=hidden;rotatable=0;points=[[0,0.5],[1,0.5]];portConstraint=eastwest;whiteSpace=wrap;html=1;" parent="YPm3PpncCEhYX0uplSMa-36" vertex="1">
          <mxGeometry y="600" width="310" height="26" as="geometry" />
        </mxCell>
        <mxCell id="YPm3PpncCEhYX0uplSMa-50" value="+&amp;nbsp;assignTaskToElevator(int floorNum, boolean isUp): int" style="text;strokeColor=none;fillColor=none;align=left;verticalAlign=top;spacingLeft=4;spacingRight=4;overflow=hidden;rotatable=0;points=[[0,0.5],[1,0.5]];portConstraint=eastwest;whiteSpace=wrap;html=1;" parent="YPm3PpncCEhYX0uplSMa-36" vertex="1">
          <mxGeometry y="626" width="310" height="26" as="geometry" />
        </mxCell>
        <mxCell id="YPm3PpncCEhYX0uplSMa-272" value="+&amp;nbsp;serve(): void" style="text;strokeColor=none;fillColor=none;align=left;verticalAlign=top;spacingLeft=4;spacingRight=4;overflow=hidden;rotatable=0;points=[[0,0.5],[1,0.5]];portConstraint=eastwest;whiteSpace=wrap;html=1;" parent="YPm3PpncCEhYX0uplSMa-36" vertex="1">
          <mxGeometry y="652" width="310" height="26" as="geometry" />
        </mxCell>
        <mxCell id="YPm3PpncCEhYX0uplSMa-273" value="+&amp;nbsp;run(): void" style="text;strokeColor=none;fillColor=none;align=left;verticalAlign=top;spacingLeft=4;spacingRight=4;overflow=hidden;rotatable=0;points=[[0,0.5],[1,0.5]];portConstraint=eastwest;whiteSpace=wrap;html=1;" parent="YPm3PpncCEhYX0uplSMa-36" vertex="1">
          <mxGeometry y="678" width="310" height="26" as="geometry" />
        </mxCell>
        <mxCell id="27cs-0Nez81wQMzJp4P_-33" style="edgeStyle=orthogonalEdgeStyle;rounded=0;orthogonalLoop=1;jettySize=auto;html=1;entryX=0.583;entryY=-0.014;entryDx=0;entryDy=0;entryPerimeter=0;" parent="WIyWlLk6GJQsqaUBKTNV-1" source="YPm3PpncCEhYX0uplSMa-51" target="YPm3PpncCEhYX0uplSMa-66" edge="1">
          <mxGeometry relative="1" as="geometry" />
        </mxCell>
        <mxCell id="YPm3PpncCEhYX0uplSMa-51" value="FloorSubsystem" style="swimlane;fontStyle=1;align=center;verticalAlign=top;childLayout=stackLayout;horizontal=1;startSize=26;horizontalStack=0;resizeParent=1;resizeParentMax=0;resizeLast=0;collapsible=1;marginBottom=0;whiteSpace=wrap;html=1;" parent="WIyWlLk6GJQsqaUBKTNV-1" vertex="1">
          <mxGeometry x="970" y="30" width="300" height="384" as="geometry" />
        </mxCell>
        <mxCell id="YPm3PpncCEhYX0uplSMa-52" value="&lt;u&gt;+ floorAddrName: String&lt;/u&gt;" style="text;strokeColor=none;fillColor=none;align=left;verticalAlign=top;spacingLeft=4;spacingRight=4;overflow=hidden;rotatable=0;points=[[0,0.5],[1,0.5]];portConstraint=eastwest;whiteSpace=wrap;html=1;" parent="YPm3PpncCEhYX0uplSMa-51" vertex="1">
          <mxGeometry y="26" width="300" height="26" as="geometry" />
        </mxCell>
        <mxCell id="YPm3PpncCEhYX0uplSMa-53" value="&lt;u&gt;+ floorListenerPort: int&lt;/u&gt;" style="text;strokeColor=none;fillColor=none;align=left;verticalAlign=top;spacingLeft=4;spacingRight=4;overflow=hidden;rotatable=0;points=[[0,0.5],[1,0.5]];portConstraint=eastwest;whiteSpace=wrap;html=1;" parent="YPm3PpncCEhYX0uplSMa-51" vertex="1">
          <mxGeometry y="52" width="300" height="26" as="geometry" />
        </mxCell>
        <mxCell id="YPm3PpncCEhYX0uplSMa-54" value="- eventComparator: Comparator&amp;lt;String[]&amp;gt;" style="text;strokeColor=none;fillColor=none;align=left;verticalAlign=top;spacingLeft=4;spacingRight=4;overflow=hidden;rotatable=0;points=[[0,0.5],[1,0.5]];portConstraint=eastwest;whiteSpace=wrap;html=1;" parent="YPm3PpncCEhYX0uplSMa-51" vertex="1">
          <mxGeometry y="78" width="300" height="26" as="geometry" />
        </mxCell>
        <mxCell id="YPm3PpncCEhYX0uplSMa-55" value="- ruuning: boolean" style="text;strokeColor=none;fillColor=none;align=left;verticalAlign=top;spacingLeft=4;spacingRight=4;overflow=hidden;rotatable=0;points=[[0,0.5],[1,0.5]];portConstraint=eastwest;whiteSpace=wrap;html=1;" parent="YPm3PpncCEhYX0uplSMa-51" vertex="1">
          <mxGeometry y="104" width="300" height="26" as="geometry" />
        </mxCell>
        <mxCell id="27cs-0Nez81wQMzJp4P_-1" value="- receiveScoket: DatagramSocket" style="text;strokeColor=none;fillColor=none;align=left;verticalAlign=top;spacingLeft=4;spacingRight=4;overflow=hidden;rotatable=0;points=[[0,0.5],[1,0.5]];portConstraint=eastwest;whiteSpace=wrap;html=1;" parent="YPm3PpncCEhYX0uplSMa-51" vertex="1">
          <mxGeometry y="130" width="300" height="26" as="geometry" />
        </mxCell>
        <mxCell id="27cs-0Nez81wQMzJp4P_-0" value="- receivePacker: DatagramPacket" style="text;strokeColor=none;fillColor=none;align=left;verticalAlign=top;spacingLeft=4;spacingRight=4;overflow=hidden;rotatable=0;points=[[0,0.5],[1,0.5]];portConstraint=eastwest;whiteSpace=wrap;html=1;" parent="YPm3PpncCEhYX0uplSMa-51" vertex="1">
          <mxGeometry y="156" width="300" height="26" as="geometry" />
        </mxCell>
        <mxCell id="YPm3PpncCEhYX0uplSMa-56" value="" style="line;strokeWidth=1;fillColor=none;align=left;verticalAlign=middle;spacingTop=-1;spacingLeft=3;spacingRight=3;rotatable=0;labelPosition=right;points=[];portConstraint=eastwest;strokeColor=inherit;" parent="YPm3PpncCEhYX0uplSMa-51" vertex="1">
          <mxGeometry y="182" width="300" height="8" as="geometry" />
        </mxCell>
        <mxCell id="YPm3PpncCEhYX0uplSMa-57" value="+ getEvents(String filepath): PriorityQueue&amp;lt;String[]&amp;gt;" style="text;strokeColor=none;fillColor=none;align=left;verticalAlign=top;spacingLeft=4;spacingRight=4;overflow=hidden;rotatable=0;points=[[0,0.5],[1,0.5]];portConstraint=eastwest;whiteSpace=wrap;html=1;" parent="YPm3PpncCEhYX0uplSMa-51" vertex="1">
          <mxGeometry y="190" width="300" height="26" as="geometry" />
        </mxCell>
        <mxCell id="YPm3PpncCEhYX0uplSMa-58" value="+ sendEvent(String[] splitEntry): void" style="text;strokeColor=none;fillColor=none;align=left;verticalAlign=top;spacingLeft=4;spacingRight=4;overflow=hidden;rotatable=0;points=[[0,0.5],[1,0.5]];portConstraint=eastwest;whiteSpace=wrap;html=1;" parent="YPm3PpncCEhYX0uplSMa-51" vertex="1">
          <mxGeometry y="216" width="300" height="26" as="geometry" />
        </mxCell>
        <mxCell id="YPm3PpncCEhYX0uplSMa-59" value="+ handleElevatorArrival(int floorNum, boolean isUp): boolean" style="text;strokeColor=none;fillColor=none;align=left;verticalAlign=top;spacingLeft=4;spacingRight=4;overflow=hidden;rotatable=0;points=[[0,0.5],[1,0.5]];portConstraint=eastwest;whiteSpace=wrap;html=1;" parent="YPm3PpncCEhYX0uplSMa-51" vertex="1">
          <mxGeometry y="242" width="300" height="38" as="geometry" />
        </mxCell>
        <mxCell id="YPm3PpncCEhYX0uplSMa-60" value="+ listenForUpdates(): void" style="text;strokeColor=none;fillColor=none;align=left;verticalAlign=top;spacingLeft=4;spacingRight=4;overflow=hidden;rotatable=0;points=[[0,0.5],[1,0.5]];portConstraint=eastwest;whiteSpace=wrap;html=1;" parent="YPm3PpncCEhYX0uplSMa-51" vertex="1">
          <mxGeometry y="280" width="300" height="26" as="geometry" />
        </mxCell>
        <mxCell id="YPm3PpncCEhYX0uplSMa-61" value="+ printMsgData(byte[] msgData): void" style="text;strokeColor=none;fillColor=none;align=left;verticalAlign=top;spacingLeft=4;spacingRight=4;overflow=hidden;rotatable=0;points=[[0,0.5],[1,0.5]];portConstraint=eastwest;whiteSpace=wrap;html=1;" parent="YPm3PpncCEhYX0uplSMa-51" vertex="1">
          <mxGeometry y="306" width="300" height="26" as="geometry" />
        </mxCell>
        <mxCell id="YPm3PpncCEhYX0uplSMa-62" value="+ kill(): void" style="text;strokeColor=none;fillColor=none;align=left;verticalAlign=top;spacingLeft=4;spacingRight=4;overflow=hidden;rotatable=0;points=[[0,0.5],[1,0.5]];portConstraint=eastwest;whiteSpace=wrap;html=1;" parent="YPm3PpncCEhYX0uplSMa-51" vertex="1">
          <mxGeometry y="332" width="300" height="26" as="geometry" />
        </mxCell>
        <mxCell id="YPm3PpncCEhYX0uplSMa-63" value="+ run(): void" style="text;strokeColor=none;fillColor=none;align=left;verticalAlign=top;spacingLeft=4;spacingRight=4;overflow=hidden;rotatable=0;points=[[0,0.5],[1,0.5]];portConstraint=eastwest;whiteSpace=wrap;html=1;" parent="YPm3PpncCEhYX0uplSMa-51" vertex="1">
          <mxGeometry y="358" width="300" height="26" as="geometry" />
        </mxCell>
        <mxCell id="YPm3PpncCEhYX0uplSMa-66" value="Floor" style="swimlane;fontStyle=1;align=center;verticalAlign=top;childLayout=stackLayout;horizontal=1;startSize=26;horizontalStack=0;resizeParent=1;resizeParentMax=0;resizeLast=0;collapsible=1;marginBottom=0;whiteSpace=wrap;html=1;" parent="WIyWlLk6GJQsqaUBKTNV-1" vertex="1">
          <mxGeometry x="980" y="477" width="240" height="216" as="geometry" />
        </mxCell>
        <mxCell id="YPm3PpncCEhYX0uplSMa-67" value="- level: int" style="text;strokeColor=none;fillColor=none;align=left;verticalAlign=top;spacingLeft=4;spacingRight=4;overflow=hidden;rotatable=0;points=[[0,0.5],[1,0.5]];portConstraint=eastwest;whiteSpace=wrap;html=1;" parent="YPm3PpncCEhYX0uplSMa-66" vertex="1">
          <mxGeometry y="26" width="240" height="26" as="geometry" />
        </mxCell>
        <mxCell id="YPm3PpncCEhYX0uplSMa-68" value="- upLight: boolean" style="text;strokeColor=none;fillColor=none;align=left;verticalAlign=top;spacingLeft=4;spacingRight=4;overflow=hidden;rotatable=0;points=[[0,0.5],[1,0.5]];portConstraint=eastwest;whiteSpace=wrap;html=1;" parent="YPm3PpncCEhYX0uplSMa-66" vertex="1">
          <mxGeometry y="52" width="240" height="26" as="geometry" />
        </mxCell>
        <mxCell id="YPm3PpncCEhYX0uplSMa-69" value="- downLight: boolean" style="text;strokeColor=none;fillColor=none;align=left;verticalAlign=top;spacingLeft=4;spacingRight=4;overflow=hidden;rotatable=0;points=[[0,0.5],[1,0.5]];portConstraint=eastwest;whiteSpace=wrap;html=1;" parent="YPm3PpncCEhYX0uplSMa-66" vertex="1">
          <mxGeometry y="78" width="240" height="26" as="geometry" />
        </mxCell>
        <mxCell id="YPm3PpncCEhYX0uplSMa-71" value="" style="line;strokeWidth=1;fillColor=none;align=left;verticalAlign=middle;spacingTop=-1;spacingLeft=3;spacingRight=3;rotatable=0;labelPosition=right;points=[];portConstraint=eastwest;strokeColor=inherit;" parent="YPm3PpncCEhYX0uplSMa-66" vertex="1">
          <mxGeometry y="104" width="240" height="8" as="geometry" />
        </mxCell>
        <mxCell id="YPm3PpncCEhYX0uplSMa-72" value="+ enableLight(boolean up): void" style="text;strokeColor=none;fillColor=none;align=left;verticalAlign=top;spacingLeft=4;spacingRight=4;overflow=hidden;rotatable=0;points=[[0,0.5],[1,0.5]];portConstraint=eastwest;whiteSpace=wrap;html=1;" parent="YPm3PpncCEhYX0uplSMa-66" vertex="1">
          <mxGeometry y="112" width="240" height="26" as="geometry" />
        </mxCell>
        <mxCell id="YPm3PpncCEhYX0uplSMa-73" value="+ disableLight(boolean up): void" style="text;strokeColor=none;fillColor=none;align=left;verticalAlign=top;spacingLeft=4;spacingRight=4;overflow=hidden;rotatable=0;points=[[0,0.5],[1,0.5]];portConstraint=eastwest;whiteSpace=wrap;html=1;" parent="YPm3PpncCEhYX0uplSMa-66" vertex="1">
          <mxGeometry y="138" width="240" height="26" as="geometry" />
        </mxCell>
        <mxCell id="YPm3PpncCEhYX0uplSMa-74" value="+ isUpLightOn(): boolean" style="text;strokeColor=none;fillColor=none;align=left;verticalAlign=top;spacingLeft=4;spacingRight=4;overflow=hidden;rotatable=0;points=[[0,0.5],[1,0.5]];portConstraint=eastwest;whiteSpace=wrap;html=1;" parent="YPm3PpncCEhYX0uplSMa-66" vertex="1">
          <mxGeometry y="164" width="240" height="26" as="geometry" />
        </mxCell>
        <mxCell id="YPm3PpncCEhYX0uplSMa-75" value="+ isDownLightOn(): boolean" style="text;strokeColor=none;fillColor=none;align=left;verticalAlign=top;spacingLeft=4;spacingRight=4;overflow=hidden;rotatable=0;points=[[0,0.5],[1,0.5]];portConstraint=eastwest;whiteSpace=wrap;html=1;" parent="YPm3PpncCEhYX0uplSMa-66" vertex="1">
          <mxGeometry y="190" width="240" height="26" as="geometry" />
        </mxCell>
        <mxCell id="YPm3PpncCEhYX0uplSMa-81" value="&amp;lt;&amp;lt;Abstract&amp;gt;&amp;gt;&lt;br&gt;&lt;i&gt;ElevatorState&lt;/i&gt;" style="swimlane;fontStyle=1;align=center;verticalAlign=top;childLayout=stackLayout;horizontal=1;startSize=40;horizontalStack=0;resizeParent=1;resizeParentMax=0;resizeLast=0;collapsible=1;marginBottom=0;whiteSpace=wrap;html=1;" parent="WIyWlLk6GJQsqaUBKTNV-1" vertex="1">
          <mxGeometry x="283" y="760" width="240" height="230" as="geometry" />
        </mxCell>
        <mxCell id="YPm3PpncCEhYX0uplSMa-82" value="# context:&amp;nbsp;ElevatorSubsystem&lt;span style=&quot;color: rgb(230, 237, 243); font-family: ui-monospace, SFMono-Regular, &amp;quot;SF Mono&amp;quot;, Menlo, Consolas, &amp;quot;Liberation Mono&amp;quot;, monospace; background-color: rgb(13, 17, 23);&quot;&gt; &lt;/span&gt;" style="text;strokeColor=none;fillColor=none;align=left;verticalAlign=top;spacingLeft=4;spacingRight=4;overflow=hidden;rotatable=0;points=[[0,0.5],[1,0.5]];portConstraint=eastwest;whiteSpace=wrap;html=1;" parent="YPm3PpncCEhYX0uplSMa-81" vertex="1">
          <mxGeometry y="40" width="240" height="26" as="geometry" />
        </mxCell>
        <mxCell id="YPm3PpncCEhYX0uplSMa-86" value="" style="line;strokeWidth=1;fillColor=none;align=left;verticalAlign=middle;spacingTop=-1;spacingLeft=3;spacingRight=3;rotatable=0;labelPosition=right;points=[];portConstraint=eastwest;strokeColor=inherit;" parent="YPm3PpncCEhYX0uplSMa-81" vertex="1">
          <mxGeometry y="66" width="240" height="8" as="geometry" />
        </mxCell>
        <mxCell id="YPm3PpncCEhYX0uplSMa-87" value="+ &lt;i&gt;getState&lt;/i&gt;(): States" style="text;strokeColor=none;fillColor=none;align=left;verticalAlign=top;spacingLeft=4;spacingRight=4;overflow=hidden;rotatable=0;points=[[0,0.5],[1,0.5]];portConstraint=eastwest;whiteSpace=wrap;html=1;" parent="YPm3PpncCEhYX0uplSMa-81" vertex="1">
          <mxGeometry y="74" width="240" height="26" as="geometry" />
        </mxCell>
        <mxCell id="YPm3PpncCEhYX0uplSMa-88" value="+ &lt;i&gt;onEntry&lt;/i&gt;(): void" style="text;strokeColor=none;fillColor=none;align=left;verticalAlign=top;spacingLeft=4;spacingRight=4;overflow=hidden;rotatable=0;points=[[0,0.5],[1,0.5]];portConstraint=eastwest;whiteSpace=wrap;html=1;" parent="YPm3PpncCEhYX0uplSMa-81" vertex="1">
          <mxGeometry y="100" width="240" height="26" as="geometry" />
        </mxCell>
        <mxCell id="YPm3PpncCEhYX0uplSMa-89" value="+ &lt;i&gt;onExit&lt;/i&gt;(): void" style="text;strokeColor=none;fillColor=none;align=left;verticalAlign=top;spacingLeft=4;spacingRight=4;overflow=hidden;rotatable=0;points=[[0,0.5],[1,0.5]];portConstraint=eastwest;whiteSpace=wrap;html=1;" parent="YPm3PpncCEhYX0uplSMa-81" vertex="1">
          <mxGeometry y="126" width="240" height="26" as="geometry" />
        </mxCell>
        <mxCell id="YPm3PpncCEhYX0uplSMa-90" value="+ &lt;i&gt;handleNewTask&lt;/i&gt;(boolean serveUp): void" style="text;strokeColor=none;fillColor=none;align=left;verticalAlign=top;spacingLeft=4;spacingRight=4;overflow=hidden;rotatable=0;points=[[0,0.5],[1,0.5]];portConstraint=eastwest;whiteSpace=wrap;html=1;" parent="YPm3PpncCEhYX0uplSMa-81" vertex="1">
          <mxGeometry y="152" width="240" height="26" as="geometry" />
        </mxCell>
        <mxCell id="YPm3PpncCEhYX0uplSMa-91" value="+ &lt;i&gt;handleTimeout&lt;/i&gt;(): void" style="text;strokeColor=none;fillColor=none;align=left;verticalAlign=top;spacingLeft=4;spacingRight=4;overflow=hidden;rotatable=0;points=[[0,0.5],[1,0.5]];portConstraint=eastwest;whiteSpace=wrap;html=1;" parent="YPm3PpncCEhYX0uplSMa-81" vertex="1">
          <mxGeometry y="178" width="240" height="26" as="geometry" />
        </mxCell>
        <mxCell id="YPm3PpncCEhYX0uplSMa-92" value="+ &lt;i&gt;handleArrivalSensor&lt;/i&gt;(): void" style="text;strokeColor=none;fillColor=none;align=left;verticalAlign=top;spacingLeft=4;spacingRight=4;overflow=hidden;rotatable=0;points=[[0,0.5],[1,0.5]];portConstraint=eastwest;whiteSpace=wrap;html=1;" parent="YPm3PpncCEhYX0uplSMa-81" vertex="1">
          <mxGeometry y="204" width="240" height="26" as="geometry" />
        </mxCell>
        <mxCell id="YPm3PpncCEhYX0uplSMa-96" value="IdleState" style="swimlane;fontStyle=1;align=center;verticalAlign=top;childLayout=stackLayout;horizontal=1;startSize=30;horizontalStack=0;resizeParent=1;resizeParentMax=0;resizeLast=0;collapsible=1;marginBottom=0;whiteSpace=wrap;html=1;" parent="WIyWlLk6GJQsqaUBKTNV-1" vertex="1">
          <mxGeometry x="-112" y="1080" width="170" height="202" as="geometry" />
        </mxCell>
        <mxCell id="YPm3PpncCEhYX0uplSMa-101" value="" style="line;strokeWidth=1;fillColor=none;align=left;verticalAlign=middle;spacingTop=-1;spacingLeft=3;spacingRight=3;rotatable=0;labelPosition=right;points=[];portConstraint=eastwest;strokeColor=inherit;" parent="YPm3PpncCEhYX0uplSMa-96" vertex="1">
          <mxGeometry y="30" width="170" height="8" as="geometry" />
        </mxCell>
        <mxCell id="YPm3PpncCEhYX0uplSMa-102" value="+&amp;nbsp;getState(): States" style="text;strokeColor=none;fillColor=none;align=left;verticalAlign=top;spacingLeft=4;spacingRight=4;overflow=hidden;rotatable=0;points=[[0,0.5],[1,0.5]];portConstraint=eastwest;whiteSpace=wrap;html=1;" parent="YPm3PpncCEhYX0uplSMa-96" vertex="1">
          <mxGeometry y="38" width="170" height="26" as="geometry" />
        </mxCell>
        <mxCell id="YPm3PpncCEhYX0uplSMa-103" value="+&amp;nbsp;onEntry(type): void" style="text;strokeColor=none;fillColor=none;align=left;verticalAlign=top;spacingLeft=4;spacingRight=4;overflow=hidden;rotatable=0;points=[[0,0.5],[1,0.5]];portConstraint=eastwest;whiteSpace=wrap;html=1;" parent="YPm3PpncCEhYX0uplSMa-96" vertex="1">
          <mxGeometry y="64" width="170" height="26" as="geometry" />
        </mxCell>
        <mxCell id="YPm3PpncCEhYX0uplSMa-104" value="+&amp;nbsp;onExit(): void" style="text;strokeColor=none;fillColor=none;align=left;verticalAlign=top;spacingLeft=4;spacingRight=4;overflow=hidden;rotatable=0;points=[[0,0.5],[1,0.5]];portConstraint=eastwest;whiteSpace=wrap;html=1;" parent="YPm3PpncCEhYX0uplSMa-96" vertex="1">
          <mxGeometry y="90" width="170" height="26" as="geometry" />
        </mxCell>
        <mxCell id="YPm3PpncCEhYX0uplSMa-105" value="+&amp;nbsp;handleNewTask(boolean serveUp): void" style="text;strokeColor=none;fillColor=none;align=left;verticalAlign=top;spacingLeft=4;spacingRight=4;overflow=hidden;rotatable=0;points=[[0,0.5],[1,0.5]];portConstraint=eastwest;whiteSpace=wrap;html=1;" parent="YPm3PpncCEhYX0uplSMa-96" vertex="1">
          <mxGeometry y="116" width="170" height="34" as="geometry" />
        </mxCell>
        <mxCell id="YPm3PpncCEhYX0uplSMa-106" value="+&amp;nbsp;handleTimeout(): void" style="text;strokeColor=none;fillColor=none;align=left;verticalAlign=top;spacingLeft=4;spacingRight=4;overflow=hidden;rotatable=0;points=[[0,0.5],[1,0.5]];portConstraint=eastwest;whiteSpace=wrap;html=1;" parent="YPm3PpncCEhYX0uplSMa-96" vertex="1">
          <mxGeometry y="150" width="170" height="26" as="geometry" />
        </mxCell>
        <mxCell id="YPm3PpncCEhYX0uplSMa-107" value="+&amp;nbsp;handleArrivalSensor(): void" style="text;strokeColor=none;fillColor=none;align=left;verticalAlign=top;spacingLeft=4;spacingRight=4;overflow=hidden;rotatable=0;points=[[0,0.5],[1,0.5]];portConstraint=eastwest;whiteSpace=wrap;html=1;" parent="YPm3PpncCEhYX0uplSMa-96" vertex="1">
          <mxGeometry y="176" width="170" height="26" as="geometry" />
        </mxCell>
        <mxCell id="YPm3PpncCEhYX0uplSMa-196" value="ArrivalState" style="swimlane;fontStyle=1;align=center;verticalAlign=top;childLayout=stackLayout;horizontal=1;startSize=30;horizontalStack=0;resizeParent=1;resizeParentMax=0;resizeLast=0;collapsible=1;marginBottom=0;whiteSpace=wrap;html=1;" parent="WIyWlLk6GJQsqaUBKTNV-1" vertex="1">
          <mxGeometry x="531" y="1080" width="180" height="202" as="geometry" />
        </mxCell>
        <mxCell id="YPm3PpncCEhYX0uplSMa-197" value="" style="line;strokeWidth=1;fillColor=none;align=left;verticalAlign=middle;spacingTop=-1;spacingLeft=3;spacingRight=3;rotatable=0;labelPosition=right;points=[];portConstraint=eastwest;strokeColor=inherit;" parent="YPm3PpncCEhYX0uplSMa-196" vertex="1">
          <mxGeometry y="30" width="180" height="8" as="geometry" />
        </mxCell>
        <mxCell id="YPm3PpncCEhYX0uplSMa-198" value="+&amp;nbsp;getState(): States" style="text;strokeColor=none;fillColor=none;align=left;verticalAlign=top;spacingLeft=4;spacingRight=4;overflow=hidden;rotatable=0;points=[[0,0.5],[1,0.5]];portConstraint=eastwest;whiteSpace=wrap;html=1;" parent="YPm3PpncCEhYX0uplSMa-196" vertex="1">
          <mxGeometry y="38" width="180" height="26" as="geometry" />
        </mxCell>
        <mxCell id="YPm3PpncCEhYX0uplSMa-199" value="+&amp;nbsp;onEntry(type): void" style="text;strokeColor=none;fillColor=none;align=left;verticalAlign=top;spacingLeft=4;spacingRight=4;overflow=hidden;rotatable=0;points=[[0,0.5],[1,0.5]];portConstraint=eastwest;whiteSpace=wrap;html=1;" parent="YPm3PpncCEhYX0uplSMa-196" vertex="1">
          <mxGeometry y="64" width="180" height="26" as="geometry" />
        </mxCell>
        <mxCell id="YPm3PpncCEhYX0uplSMa-200" value="+&amp;nbsp;onExit(): void" style="text;strokeColor=none;fillColor=none;align=left;verticalAlign=top;spacingLeft=4;spacingRight=4;overflow=hidden;rotatable=0;points=[[0,0.5],[1,0.5]];portConstraint=eastwest;whiteSpace=wrap;html=1;" parent="YPm3PpncCEhYX0uplSMa-196" vertex="1">
          <mxGeometry y="90" width="180" height="26" as="geometry" />
        </mxCell>
        <mxCell id="YPm3PpncCEhYX0uplSMa-201" value="+&amp;nbsp;handleNewTask(boolean serveUp): void" style="text;strokeColor=none;fillColor=none;align=left;verticalAlign=top;spacingLeft=4;spacingRight=4;overflow=hidden;rotatable=0;points=[[0,0.5],[1,0.5]];portConstraint=eastwest;whiteSpace=wrap;html=1;" parent="YPm3PpncCEhYX0uplSMa-196" vertex="1">
          <mxGeometry y="116" width="180" height="34" as="geometry" />
        </mxCell>
        <mxCell id="YPm3PpncCEhYX0uplSMa-202" value="+&amp;nbsp;handleTimeout(): void" style="text;strokeColor=none;fillColor=none;align=left;verticalAlign=top;spacingLeft=4;spacingRight=4;overflow=hidden;rotatable=0;points=[[0,0.5],[1,0.5]];portConstraint=eastwest;whiteSpace=wrap;html=1;" parent="YPm3PpncCEhYX0uplSMa-196" vertex="1">
          <mxGeometry y="150" width="180" height="26" as="geometry" />
        </mxCell>
        <mxCell id="YPm3PpncCEhYX0uplSMa-203" value="+&amp;nbsp;handleArrivalSensor(): void" style="text;strokeColor=none;fillColor=none;align=left;verticalAlign=top;spacingLeft=4;spacingRight=4;overflow=hidden;rotatable=0;points=[[0,0.5],[1,0.5]];portConstraint=eastwest;whiteSpace=wrap;html=1;" parent="YPm3PpncCEhYX0uplSMa-196" vertex="1">
          <mxGeometry y="176" width="180" height="26" as="geometry" />
        </mxCell>
        <mxCell id="YPm3PpncCEhYX0uplSMa-204" value="ServerUpState" style="swimlane;fontStyle=1;align=center;verticalAlign=top;childLayout=stackLayout;horizontal=1;startSize=30;horizontalStack=0;resizeParent=1;resizeParentMax=0;resizeLast=0;collapsible=1;marginBottom=0;whiteSpace=wrap;html=1;" parent="WIyWlLk6GJQsqaUBKTNV-1" vertex="1">
          <mxGeometry x="308" y="1080" width="180" height="202" as="geometry" />
        </mxCell>
        <mxCell id="YPm3PpncCEhYX0uplSMa-205" value="" style="line;strokeWidth=1;fillColor=none;align=left;verticalAlign=middle;spacingTop=-1;spacingLeft=3;spacingRight=3;rotatable=0;labelPosition=right;points=[];portConstraint=eastwest;strokeColor=inherit;" parent="YPm3PpncCEhYX0uplSMa-204" vertex="1">
          <mxGeometry y="30" width="180" height="8" as="geometry" />
        </mxCell>
        <mxCell id="YPm3PpncCEhYX0uplSMa-206" value="+&amp;nbsp;getState(): States" style="text;strokeColor=none;fillColor=none;align=left;verticalAlign=top;spacingLeft=4;spacingRight=4;overflow=hidden;rotatable=0;points=[[0,0.5],[1,0.5]];portConstraint=eastwest;whiteSpace=wrap;html=1;" parent="YPm3PpncCEhYX0uplSMa-204" vertex="1">
          <mxGeometry y="38" width="180" height="26" as="geometry" />
        </mxCell>
        <mxCell id="YPm3PpncCEhYX0uplSMa-207" value="+&amp;nbsp;onEntry(type): void" style="text;strokeColor=none;fillColor=none;align=left;verticalAlign=top;spacingLeft=4;spacingRight=4;overflow=hidden;rotatable=0;points=[[0,0.5],[1,0.5]];portConstraint=eastwest;whiteSpace=wrap;html=1;" parent="YPm3PpncCEhYX0uplSMa-204" vertex="1">
          <mxGeometry y="64" width="180" height="26" as="geometry" />
        </mxCell>
        <mxCell id="YPm3PpncCEhYX0uplSMa-208" value="+&amp;nbsp;onExit(): void" style="text;strokeColor=none;fillColor=none;align=left;verticalAlign=top;spacingLeft=4;spacingRight=4;overflow=hidden;rotatable=0;points=[[0,0.5],[1,0.5]];portConstraint=eastwest;whiteSpace=wrap;html=1;" parent="YPm3PpncCEhYX0uplSMa-204" vertex="1">
          <mxGeometry y="90" width="180" height="26" as="geometry" />
        </mxCell>
        <mxCell id="YPm3PpncCEhYX0uplSMa-209" value="+&amp;nbsp;handleNewTask(boolean serveUp): void" style="text;strokeColor=none;fillColor=none;align=left;verticalAlign=top;spacingLeft=4;spacingRight=4;overflow=hidden;rotatable=0;points=[[0,0.5],[1,0.5]];portConstraint=eastwest;whiteSpace=wrap;html=1;" parent="YPm3PpncCEhYX0uplSMa-204" vertex="1">
          <mxGeometry y="116" width="180" height="34" as="geometry" />
        </mxCell>
        <mxCell id="YPm3PpncCEhYX0uplSMa-210" value="+&amp;nbsp;handleTimeout(): void" style="text;strokeColor=none;fillColor=none;align=left;verticalAlign=top;spacingLeft=4;spacingRight=4;overflow=hidden;rotatable=0;points=[[0,0.5],[1,0.5]];portConstraint=eastwest;whiteSpace=wrap;html=1;" parent="YPm3PpncCEhYX0uplSMa-204" vertex="1">
          <mxGeometry y="150" width="180" height="26" as="geometry" />
        </mxCell>
        <mxCell id="YPm3PpncCEhYX0uplSMa-211" value="+&amp;nbsp;handleArrivalSensor(): void" style="text;strokeColor=none;fillColor=none;align=left;verticalAlign=top;spacingLeft=4;spacingRight=4;overflow=hidden;rotatable=0;points=[[0,0.5],[1,0.5]];portConstraint=eastwest;whiteSpace=wrap;html=1;" parent="YPm3PpncCEhYX0uplSMa-204" vertex="1">
          <mxGeometry y="176" width="180" height="26" as="geometry" />
        </mxCell>
        <mxCell id="YPm3PpncCEhYX0uplSMa-212" value="ServerDownState" style="swimlane;fontStyle=1;align=center;verticalAlign=top;childLayout=stackLayout;horizontal=1;startSize=30;horizontalStack=0;resizeParent=1;resizeParentMax=0;resizeLast=0;collapsible=1;marginBottom=0;whiteSpace=wrap;html=1;" parent="WIyWlLk6GJQsqaUBKTNV-1" vertex="1">
          <mxGeometry x="98" y="1080" width="170" height="202" as="geometry" />
        </mxCell>
        <mxCell id="YPm3PpncCEhYX0uplSMa-213" value="" style="line;strokeWidth=1;fillColor=none;align=left;verticalAlign=middle;spacingTop=-1;spacingLeft=3;spacingRight=3;rotatable=0;labelPosition=right;points=[];portConstraint=eastwest;strokeColor=inherit;" parent="YPm3PpncCEhYX0uplSMa-212" vertex="1">
          <mxGeometry y="30" width="170" height="8" as="geometry" />
        </mxCell>
        <mxCell id="YPm3PpncCEhYX0uplSMa-214" value="+&amp;nbsp;getState(): States" style="text;strokeColor=none;fillColor=none;align=left;verticalAlign=top;spacingLeft=4;spacingRight=4;overflow=hidden;rotatable=0;points=[[0,0.5],[1,0.5]];portConstraint=eastwest;whiteSpace=wrap;html=1;" parent="YPm3PpncCEhYX0uplSMa-212" vertex="1">
          <mxGeometry y="38" width="170" height="26" as="geometry" />
        </mxCell>
        <mxCell id="YPm3PpncCEhYX0uplSMa-215" value="+&amp;nbsp;onEntry(type): void" style="text;strokeColor=none;fillColor=none;align=left;verticalAlign=top;spacingLeft=4;spacingRight=4;overflow=hidden;rotatable=0;points=[[0,0.5],[1,0.5]];portConstraint=eastwest;whiteSpace=wrap;html=1;" parent="YPm3PpncCEhYX0uplSMa-212" vertex="1">
          <mxGeometry y="64" width="170" height="26" as="geometry" />
        </mxCell>
        <mxCell id="YPm3PpncCEhYX0uplSMa-216" value="+&amp;nbsp;onExit(): void" style="text;strokeColor=none;fillColor=none;align=left;verticalAlign=top;spacingLeft=4;spacingRight=4;overflow=hidden;rotatable=0;points=[[0,0.5],[1,0.5]];portConstraint=eastwest;whiteSpace=wrap;html=1;" parent="YPm3PpncCEhYX0uplSMa-212" vertex="1">
          <mxGeometry y="90" width="170" height="26" as="geometry" />
        </mxCell>
        <mxCell id="YPm3PpncCEhYX0uplSMa-217" value="+&amp;nbsp;handleNewTask(boolean serveUp): void" style="text;strokeColor=none;fillColor=none;align=left;verticalAlign=top;spacingLeft=4;spacingRight=4;overflow=hidden;rotatable=0;points=[[0,0.5],[1,0.5]];portConstraint=eastwest;whiteSpace=wrap;html=1;" parent="YPm3PpncCEhYX0uplSMa-212" vertex="1">
          <mxGeometry y="116" width="170" height="34" as="geometry" />
        </mxCell>
        <mxCell id="YPm3PpncCEhYX0uplSMa-218" value="+&amp;nbsp;handleTimeout(): void" style="text;strokeColor=none;fillColor=none;align=left;verticalAlign=top;spacingLeft=4;spacingRight=4;overflow=hidden;rotatable=0;points=[[0,0.5],[1,0.5]];portConstraint=eastwest;whiteSpace=wrap;html=1;" parent="YPm3PpncCEhYX0uplSMa-212" vertex="1">
          <mxGeometry y="150" width="170" height="26" as="geometry" />
        </mxCell>
        <mxCell id="YPm3PpncCEhYX0uplSMa-219" value="+&amp;nbsp;handleArrivalSensor(): void" style="text;strokeColor=none;fillColor=none;align=left;verticalAlign=top;spacingLeft=4;spacingRight=4;overflow=hidden;rotatable=0;points=[[0,0.5],[1,0.5]];portConstraint=eastwest;whiteSpace=wrap;html=1;" parent="YPm3PpncCEhYX0uplSMa-212" vertex="1">
          <mxGeometry y="176" width="170" height="26" as="geometry" />
        </mxCell>
        <mxCell id="YPm3PpncCEhYX0uplSMa-220" value="SyncState" style="swimlane;fontStyle=1;align=center;verticalAlign=top;childLayout=stackLayout;horizontal=1;startSize=30;horizontalStack=0;resizeParent=1;resizeParentMax=0;resizeLast=0;collapsible=1;marginBottom=0;whiteSpace=wrap;html=1;" parent="WIyWlLk6GJQsqaUBKTNV-1" vertex="1">
          <mxGeometry x="748" y="1080" width="170" height="202" as="geometry" />
        </mxCell>
        <mxCell id="YPm3PpncCEhYX0uplSMa-221" value="" style="line;strokeWidth=1;fillColor=none;align=left;verticalAlign=middle;spacingTop=-1;spacingLeft=3;spacingRight=3;rotatable=0;labelPosition=right;points=[];portConstraint=eastwest;strokeColor=inherit;" parent="YPm3PpncCEhYX0uplSMa-220" vertex="1">
          <mxGeometry y="30" width="170" height="8" as="geometry" />
        </mxCell>
        <mxCell id="YPm3PpncCEhYX0uplSMa-222" value="+&amp;nbsp;getState(): States" style="text;strokeColor=none;fillColor=none;align=left;verticalAlign=top;spacingLeft=4;spacingRight=4;overflow=hidden;rotatable=0;points=[[0,0.5],[1,0.5]];portConstraint=eastwest;whiteSpace=wrap;html=1;" parent="YPm3PpncCEhYX0uplSMa-220" vertex="1">
          <mxGeometry y="38" width="170" height="26" as="geometry" />
        </mxCell>
        <mxCell id="YPm3PpncCEhYX0uplSMa-223" value="+&amp;nbsp;onEntry(type): void" style="text;strokeColor=none;fillColor=none;align=left;verticalAlign=top;spacingLeft=4;spacingRight=4;overflow=hidden;rotatable=0;points=[[0,0.5],[1,0.5]];portConstraint=eastwest;whiteSpace=wrap;html=1;" parent="YPm3PpncCEhYX0uplSMa-220" vertex="1">
          <mxGeometry y="64" width="170" height="26" as="geometry" />
        </mxCell>
        <mxCell id="YPm3PpncCEhYX0uplSMa-224" value="+&amp;nbsp;onExit(): void" style="text;strokeColor=none;fillColor=none;align=left;verticalAlign=top;spacingLeft=4;spacingRight=4;overflow=hidden;rotatable=0;points=[[0,0.5],[1,0.5]];portConstraint=eastwest;whiteSpace=wrap;html=1;" parent="YPm3PpncCEhYX0uplSMa-220" vertex="1">
          <mxGeometry y="90" width="170" height="26" as="geometry" />
        </mxCell>
        <mxCell id="YPm3PpncCEhYX0uplSMa-225" value="+&amp;nbsp;handleNewTask(boolean serveUp): void" style="text;strokeColor=none;fillColor=none;align=left;verticalAlign=top;spacingLeft=4;spacingRight=4;overflow=hidden;rotatable=0;points=[[0,0.5],[1,0.5]];portConstraint=eastwest;whiteSpace=wrap;html=1;" parent="YPm3PpncCEhYX0uplSMa-220" vertex="1">
          <mxGeometry y="116" width="170" height="34" as="geometry" />
        </mxCell>
        <mxCell id="YPm3PpncCEhYX0uplSMa-226" value="+&amp;nbsp;handleTimeout(): void" style="text;strokeColor=none;fillColor=none;align=left;verticalAlign=top;spacingLeft=4;spacingRight=4;overflow=hidden;rotatable=0;points=[[0,0.5],[1,0.5]];portConstraint=eastwest;whiteSpace=wrap;html=1;" parent="YPm3PpncCEhYX0uplSMa-220" vertex="1">
          <mxGeometry y="150" width="170" height="26" as="geometry" />
        </mxCell>
        <mxCell id="YPm3PpncCEhYX0uplSMa-227" value="+&amp;nbsp;handleArrivalSensor(): void" style="text;strokeColor=none;fillColor=none;align=left;verticalAlign=top;spacingLeft=4;spacingRight=4;overflow=hidden;rotatable=0;points=[[0,0.5],[1,0.5]];portConstraint=eastwest;whiteSpace=wrap;html=1;" parent="YPm3PpncCEhYX0uplSMa-220" vertex="1">
          <mxGeometry y="176" width="170" height="26" as="geometry" />
        </mxCell>
        <mxCell id="27cs-0Nez81wQMzJp4P_-22" style="edgeStyle=orthogonalEdgeStyle;rounded=0;orthogonalLoop=1;jettySize=auto;html=1;entryX=0.5;entryY=0;entryDx=0;entryDy=0;" parent="WIyWlLk6GJQsqaUBKTNV-1" source="YPm3PpncCEhYX0uplSMa-242" target="27cs-0Nez81wQMzJp4P_-4" edge="1">
          <mxGeometry relative="1" as="geometry" />
        </mxCell>
        <mxCell id="YPm3PpncCEhYX0uplSMa-242" value="TaskDispatcher" style="swimlane;fontStyle=1;align=center;verticalAlign=top;childLayout=stackLayout;horizontal=1;startSize=26;horizontalStack=0;resizeParent=1;resizeParentMax=0;resizeLast=0;collapsible=1;marginBottom=0;whiteSpace=wrap;html=1;" parent="WIyWlLk6GJQsqaUBKTNV-1" vertex="1">
          <mxGeometry x="250" y="40" width="260" height="176" as="geometry" />
        </mxCell>
        <mxCell id="YPm3PpncCEhYX0uplSMa-247" value="" style="line;strokeWidth=1;fillColor=none;align=left;verticalAlign=middle;spacingTop=-1;spacingLeft=3;spacingRight=3;rotatable=0;labelPosition=right;points=[];portConstraint=eastwest;strokeColor=inherit;" parent="YPm3PpncCEhYX0uplSMa-242" vertex="1">
          <mxGeometry y="26" width="260" height="8" as="geometry" />
        </mxCell>
        <mxCell id="YPm3PpncCEhYX0uplSMa-251" value="- dispatch(FloorRequest task): void" style="text;strokeColor=none;fillColor=none;align=left;verticalAlign=top;spacingLeft=4;spacingRight=4;overflow=hidden;rotatable=0;points=[[0,0.5],[1,0.5]];portConstraint=eastwest;whiteSpace=wrap;html=1;" parent="YPm3PpncCEhYX0uplSMa-242" vertex="1">
          <mxGeometry y="34" width="260" height="26" as="geometry" />
        </mxCell>
        <mxCell id="YPm3PpncCEhYX0uplSMa-249" value="- getNextTask(): FloorRequest" style="text;strokeColor=none;fillColor=none;align=left;verticalAlign=top;spacingLeft=4;spacingRight=4;overflow=hidden;rotatable=0;points=[[0,0.5],[1,0.5]];portConstraint=eastwest;whiteSpace=wrap;html=1;" parent="YPm3PpncCEhYX0uplSMa-242" vertex="1">
          <mxGeometry y="60" width="260" height="26" as="geometry" />
        </mxCell>
        <mxCell id="YPm3PpncCEhYX0uplSMa-248" value="+ enqueueTask(FloorRequest task): boolean" style="text;strokeColor=none;fillColor=none;align=left;verticalAlign=top;spacingLeft=4;spacingRight=4;overflow=hidden;rotatable=0;points=[[0,0.5],[1,0.5]];portConstraint=eastwest;whiteSpace=wrap;html=1;" parent="YPm3PpncCEhYX0uplSMa-242" vertex="1">
          <mxGeometry y="86" width="260" height="26" as="geometry" />
        </mxCell>
        <mxCell id="YPm3PpncCEhYX0uplSMa-250" value="+ getEligibleElevatorPort(int floorNum, boolean isUp): int" style="text;strokeColor=none;fillColor=none;align=left;verticalAlign=top;spacingLeft=4;spacingRight=4;overflow=hidden;rotatable=0;points=[[0,0.5],[1,0.5]];portConstraint=eastwest;whiteSpace=wrap;html=1;" parent="YPm3PpncCEhYX0uplSMa-242" vertex="1">
          <mxGeometry y="112" width="260" height="38" as="geometry" />
        </mxCell>
        <mxCell id="YPm3PpncCEhYX0uplSMa-252" value="+ run(): void" style="text;strokeColor=none;fillColor=none;align=left;verticalAlign=top;spacingLeft=4;spacingRight=4;overflow=hidden;rotatable=0;points=[[0,0.5],[1,0.5]];portConstraint=eastwest;whiteSpace=wrap;html=1;" parent="YPm3PpncCEhYX0uplSMa-242" vertex="1">
          <mxGeometry y="150" width="260" height="26" as="geometry" />
        </mxCell>
        <mxCell id="YPm3PpncCEhYX0uplSMa-257" value="RPCSender" style="swimlane;fontStyle=1;align=center;verticalAlign=top;childLayout=stackLayout;horizontal=1;startSize=26;horizontalStack=0;resizeParent=1;resizeParentMax=0;resizeLast=0;collapsible=1;marginBottom=0;whiteSpace=wrap;html=1;" parent="WIyWlLk6GJQsqaUBKTNV-1" vertex="1">
          <mxGeometry x="450" y="-300" width="290" height="170" as="geometry" />
        </mxCell>
        <mxCell id="YPm3PpncCEhYX0uplSMa-258" value="+ DatagramPacket: sendPacket" style="text;strokeColor=none;fillColor=none;align=left;verticalAlign=top;spacingLeft=4;spacingRight=4;overflow=hidden;rotatable=0;points=[[0,0.5],[1,0.5]];portConstraint=eastwest;whiteSpace=wrap;html=1;" parent="YPm3PpncCEhYX0uplSMa-257" vertex="1">
          <mxGeometry y="26" width="290" height="26" as="geometry" />
        </mxCell>
        <mxCell id="27cs-0Nez81wQMzJp4P_-2" value="+ DatagramPacket: receivePacket" style="text;strokeColor=none;fillColor=none;align=left;verticalAlign=top;spacingLeft=4;spacingRight=4;overflow=hidden;rotatable=0;points=[[0,0.5],[1,0.5]];portConstraint=eastwest;whiteSpace=wrap;html=1;" parent="YPm3PpncCEhYX0uplSMa-257" vertex="1">
          <mxGeometry y="52" width="290" height="26" as="geometry" />
        </mxCell>
        <mxCell id="27cs-0Nez81wQMzJp4P_-3" value="+ DatagramSocket: sendReceiveSocket" style="text;strokeColor=none;fillColor=none;align=left;verticalAlign=top;spacingLeft=4;spacingRight=4;overflow=hidden;rotatable=0;points=[[0,0.5],[1,0.5]];portConstraint=eastwest;whiteSpace=wrap;html=1;" parent="YPm3PpncCEhYX0uplSMa-257" vertex="1">
          <mxGeometry y="78" width="290" height="26" as="geometry" />
        </mxCell>
        <mxCell id="YPm3PpncCEhYX0uplSMa-262" value="" style="line;strokeWidth=1;fillColor=none;align=left;verticalAlign=middle;spacingTop=-1;spacingLeft=3;spacingRight=3;rotatable=0;labelPosition=right;points=[];portConstraint=eastwest;strokeColor=inherit;" parent="YPm3PpncCEhYX0uplSMa-257" vertex="1">
          <mxGeometry y="104" width="290" height="8" as="geometry" />
        </mxCell>
        <mxCell id="YPm3PpncCEhYX0uplSMa-263" value="+ rpcSend(byte[] message, byte[] response, int port, InetAddress destination, String nam: void): type" style="text;strokeColor=none;fillColor=none;align=left;verticalAlign=top;spacingLeft=4;spacingRight=4;overflow=hidden;rotatable=0;points=[[0,0.5],[1,0.5]];portConstraint=eastwest;whiteSpace=wrap;html=1;" parent="YPm3PpncCEhYX0uplSMa-257" vertex="1">
          <mxGeometry y="112" width="290" height="58" as="geometry" />
        </mxCell>
        <mxCell id="27cs-0Nez81wQMzJp4P_-4" value="FloorRequest" style="swimlane;fontStyle=1;align=center;verticalAlign=top;childLayout=stackLayout;horizontal=1;startSize=26;horizontalStack=0;resizeParent=1;resizeParentMax=0;resizeLast=0;collapsible=1;marginBottom=0;whiteSpace=wrap;html=1;" parent="WIyWlLk6GJQsqaUBKTNV-1" vertex="1">
          <mxGeometry x="250" y="260" width="260" height="138" as="geometry" />
        </mxCell>
        <mxCell id="27cs-0Nez81wQMzJp4P_-5" value="- floorNum: int" style="text;strokeColor=none;fillColor=none;align=left;verticalAlign=top;spacingLeft=4;spacingRight=4;overflow=hidden;rotatable=0;points=[[0,0.5],[1,0.5]];portConstraint=eastwest;whiteSpace=wrap;html=1;" parent="27cs-0Nez81wQMzJp4P_-4" vertex="1">
          <mxGeometry y="26" width="260" height="26" as="geometry" />
        </mxCell>
        <mxCell id="27cs-0Nez81wQMzJp4P_-12" value="- isUp: boolean" style="text;strokeColor=none;fillColor=none;align=left;verticalAlign=top;spacingLeft=4;spacingRight=4;overflow=hidden;rotatable=0;points=[[0,0.5],[1,0.5]];portConstraint=eastwest;whiteSpace=wrap;html=1;" parent="27cs-0Nez81wQMzJp4P_-4" vertex="1">
          <mxGeometry y="52" width="260" height="26" as="geometry" />
        </mxCell>
        <mxCell id="27cs-0Nez81wQMzJp4P_-6" value="" style="line;strokeWidth=1;fillColor=none;align=left;verticalAlign=middle;spacingTop=-1;spacingLeft=3;spacingRight=3;rotatable=0;labelPosition=right;points=[];portConstraint=eastwest;strokeColor=inherit;" parent="27cs-0Nez81wQMzJp4P_-4" vertex="1">
          <mxGeometry y="78" width="260" height="8" as="geometry" />
        </mxCell>
        <mxCell id="27cs-0Nez81wQMzJp4P_-11" value="+ getFloorNum(): int" style="text;strokeColor=none;fillColor=none;align=left;verticalAlign=top;spacingLeft=4;spacingRight=4;overflow=hidden;rotatable=0;points=[[0,0.5],[1,0.5]];portConstraint=eastwest;whiteSpace=wrap;html=1;" parent="27cs-0Nez81wQMzJp4P_-4" vertex="1">
          <mxGeometry y="86" width="260" height="26" as="geometry" />
        </mxCell>
        <mxCell id="27cs-0Nez81wQMzJp4P_-13" value="+ isUp(): boolean" style="text;strokeColor=none;fillColor=none;align=left;verticalAlign=top;spacingLeft=4;spacingRight=4;overflow=hidden;rotatable=0;points=[[0,0.5],[1,0.5]];portConstraint=eastwest;whiteSpace=wrap;html=1;" parent="27cs-0Nez81wQMzJp4P_-4" vertex="1">
          <mxGeometry y="112" width="260" height="26" as="geometry" />
        </mxCell>
        <mxCell id="27cs-0Nez81wQMzJp4P_-23" value="0.. *" style="text;html=1;align=center;verticalAlign=middle;resizable=0;points=[];autosize=1;strokeColor=none;fillColor=none;" parent="WIyWlLk6GJQsqaUBKTNV-1" vertex="1">
          <mxGeometry x="383" y="230" width="40" height="30" as="geometry" />
        </mxCell>
        <mxCell id="27cs-0Nez81wQMzJp4P_-30" value="" style="endArrow=none;html=1;rounded=0;exitX=1;exitY=0.756;exitDx=0;exitDy=0;exitPerimeter=0;entryX=0;entryY=0.5;entryDx=0;entryDy=0;" parent="WIyWlLk6GJQsqaUBKTNV-1" source="YPm3PpncCEhYX0uplSMa-248" target="YPm3PpncCEhYX0uplSMa-37" edge="1">
          <mxGeometry relative="1" as="geometry">
            <mxPoint x="460" y="330" as="sourcePoint" />
            <mxPoint x="620" y="330" as="targetPoint" />
          </mxGeometry>
        </mxCell>
        <mxCell id="27cs-0Nez81wQMzJp4P_-31" value="1" style="resizable=0;html=1;whiteSpace=wrap;align=left;verticalAlign=bottom;" parent="27cs-0Nez81wQMzJp4P_-30" connectable="0" vertex="1">
          <mxGeometry x="-1" relative="1" as="geometry" />
        </mxCell>
        <mxCell id="27cs-0Nez81wQMzJp4P_-32" value="1" style="resizable=0;html=1;whiteSpace=wrap;align=right;verticalAlign=bottom;" parent="27cs-0Nez81wQMzJp4P_-30" connectable="0" vertex="1">
          <mxGeometry x="1" relative="1" as="geometry" />
        </mxCell>
        <mxCell id="27cs-0Nez81wQMzJp4P_-34" value="2.. *" style="text;html=1;align=center;verticalAlign=middle;resizable=0;points=[];autosize=1;strokeColor=none;fillColor=none;" parent="WIyWlLk6GJQsqaUBKTNV-1" vertex="1">
          <mxGeometry x="1120" y="445" width="40" height="30" as="geometry" />
        </mxCell>
        <mxCell id="27cs-0Nez81wQMzJp4P_-35" value="1" style="text;html=1;align=center;verticalAlign=middle;resizable=0;points=[];autosize=1;strokeColor=none;fillColor=none;" parent="WIyWlLk6GJQsqaUBKTNV-1" vertex="1">
          <mxGeometry x="1120" y="414" width="30" height="30" as="geometry" />
        </mxCell>
        <mxCell id="27cs-0Nez81wQMzJp4P_-37" value="" style="endArrow=none;html=1;rounded=0;exitX=1;exitY=0.5;exitDx=0;exitDy=0;entryX=0;entryY=0.5;entryDx=0;entryDy=0;" parent="WIyWlLk6GJQsqaUBKTNV-1" source="YPm3PpncCEhYX0uplSMa-176" target="YPm3PpncCEhYX0uplSMa-248" edge="1">
          <mxGeometry relative="1" as="geometry">
            <mxPoint x="200" y="320" as="sourcePoint" />
            <mxPoint x="360" y="320" as="targetPoint" />
          </mxGeometry>
        </mxCell>
        <mxCell id="27cs-0Nez81wQMzJp4P_-39" value="1" style="resizable=0;html=1;whiteSpace=wrap;align=right;verticalAlign=bottom;" parent="27cs-0Nez81wQMzJp4P_-37" connectable="0" vertex="1">
          <mxGeometry x="1" relative="1" as="geometry" />
        </mxCell>
        <mxCell id="27cs-0Nez81wQMzJp4P_-40" value="1.. *" style="text;html=1;align=center;verticalAlign=middle;resizable=0;points=[];autosize=1;strokeColor=none;fillColor=none;" parent="WIyWlLk6GJQsqaUBKTNV-1" vertex="1">
          <mxGeometry x="180" y="113" width="40" height="30" as="geometry" />
        </mxCell>
        <mxCell id="27cs-0Nez81wQMzJp4P_-41" style="edgeStyle=orthogonalEdgeStyle;rounded=0;orthogonalLoop=1;jettySize=auto;html=1;exitX=0;exitY=0.5;exitDx=0;exitDy=0;entryX=1;entryY=0.5;entryDx=0;entryDy=0;" parent="WIyWlLk6GJQsqaUBKTNV-1" source="YPm3PpncCEhYX0uplSMa-5" target="YPm3PpncCEhYX0uplSMa-22" edge="1">
          <mxGeometry relative="1" as="geometry" />
        </mxCell>
        <mxCell id="27cs-0Nez81wQMzJp4P_-42" value="1" style="text;html=1;align=center;verticalAlign=middle;resizable=0;points=[];autosize=1;strokeColor=none;fillColor=none;" parent="WIyWlLk6GJQsqaUBKTNV-1" vertex="1">
          <mxGeometry x="-200" y="55" width="30" height="30" as="geometry" />
        </mxCell>
        <mxCell id="27cs-0Nez81wQMzJp4P_-43" value="" style="endArrow=none;html=1;rounded=0;exitX=1;exitY=0.5;exitDx=0;exitDy=0;entryX=0;entryY=0.5;entryDx=0;entryDy=0;" parent="WIyWlLk6GJQsqaUBKTNV-1" source="YPm3PpncCEhYX0uplSMa-37" target="YPm3PpncCEhYX0uplSMa-55" edge="1">
          <mxGeometry relative="1" as="geometry">
            <mxPoint x="890" y="150" as="sourcePoint" />
            <mxPoint x="1050" y="150" as="targetPoint" />
          </mxGeometry>
        </mxCell>
        <mxCell id="27cs-0Nez81wQMzJp4P_-44" value="1" style="resizable=0;html=1;whiteSpace=wrap;align=left;verticalAlign=bottom;" parent="27cs-0Nez81wQMzJp4P_-43" connectable="0" vertex="1">
          <mxGeometry x="-1" relative="1" as="geometry" />
        </mxCell>
        <mxCell id="27cs-0Nez81wQMzJp4P_-45" value="1" style="resizable=0;html=1;whiteSpace=wrap;align=right;verticalAlign=bottom;" parent="27cs-0Nez81wQMzJp4P_-43" connectable="0" vertex="1">
          <mxGeometry x="1" relative="1" as="geometry" />
        </mxCell>
        <mxCell id="27cs-0Nez81wQMzJp4P_-46" style="edgeStyle=orthogonalEdgeStyle;rounded=0;orthogonalLoop=1;jettySize=auto;html=1;entryX=0;entryY=0.5;entryDx=0;entryDy=0;" parent="WIyWlLk6GJQsqaUBKTNV-1" source="YPm3PpncCEhYX0uplSMa-191" target="YPm3PpncCEhYX0uplSMa-87" edge="1">
          <mxGeometry relative="1" as="geometry" />
        </mxCell>
        <mxCell id="27cs-0Nez81wQMzJp4P_-47" value="1" style="text;html=1;align=center;verticalAlign=middle;resizable=0;points=[];autosize=1;strokeColor=none;fillColor=none;" parent="WIyWlLk6GJQsqaUBKTNV-1" vertex="1">
          <mxGeometry x="253" y="820" width="30" height="30" as="geometry" />
        </mxCell>
        <mxCell id="27cs-0Nez81wQMzJp4P_-48" value="" style="endArrow=block;dashed=1;endFill=0;endSize=12;html=1;rounded=0;exitX=0.5;exitY=0;exitDx=0;exitDy=0;entryX=0.481;entryY=1.038;entryDx=0;entryDy=0;entryPerimeter=0;" parent="WIyWlLk6GJQsqaUBKTNV-1" source="YPm3PpncCEhYX0uplSMa-204" target="YPm3PpncCEhYX0uplSMa-92" edge="1">
          <mxGeometry width="160" relative="1" as="geometry">
            <mxPoint x="310" y="1040" as="sourcePoint" />
            <mxPoint x="470" y="1040" as="targetPoint" />
            <Array as="points">
              <mxPoint x="398" y="1040" />
            </Array>
          </mxGeometry>
        </mxCell>
        <mxCell id="27cs-0Nez81wQMzJp4P_-49" value="" style="endArrow=block;dashed=1;endFill=0;endSize=12;html=1;rounded=0;exitX=0.5;exitY=0;exitDx=0;exitDy=0;entryX=0.708;entryY=1.077;entryDx=0;entryDy=0;entryPerimeter=0;" parent="WIyWlLk6GJQsqaUBKTNV-1" source="YPm3PpncCEhYX0uplSMa-196" target="YPm3PpncCEhYX0uplSMa-92" edge="1">
          <mxGeometry width="160" relative="1" as="geometry">
            <mxPoint x="408" y="1090" as="sourcePoint" />
            <mxPoint x="408" y="1001" as="targetPoint" />
          </mxGeometry>
        </mxCell>
        <mxCell id="27cs-0Nez81wQMzJp4P_-50" value="" style="endArrow=block;dashed=1;endFill=0;endSize=12;html=1;rounded=0;exitX=0.5;exitY=0;exitDx=0;exitDy=0;entryX=0.998;entryY=1.056;entryDx=0;entryDy=0;entryPerimeter=0;" parent="WIyWlLk6GJQsqaUBKTNV-1" source="YPm3PpncCEhYX0uplSMa-220" target="YPm3PpncCEhYX0uplSMa-92" edge="1">
          <mxGeometry width="160" relative="1" as="geometry">
            <mxPoint x="631" y="1090" as="sourcePoint" />
            <mxPoint x="463" y="1002" as="targetPoint" />
          </mxGeometry>
        </mxCell>
        <mxCell id="27cs-0Nez81wQMzJp4P_-55" value="" style="endArrow=block;dashed=1;endFill=0;endSize=12;html=1;rounded=0;exitX=0.5;exitY=0;exitDx=0;exitDy=0;entryX=0.299;entryY=1.086;entryDx=0;entryDy=0;entryPerimeter=0;" parent="WIyWlLk6GJQsqaUBKTNV-1" source="YPm3PpncCEhYX0uplSMa-212" target="YPm3PpncCEhYX0uplSMa-92" edge="1">
          <mxGeometry width="160" relative="1" as="geometry">
            <mxPoint x="220" y="1030" as="sourcePoint" />
            <mxPoint x="380" y="1030" as="targetPoint" />
          </mxGeometry>
        </mxCell>
        <mxCell id="27cs-0Nez81wQMzJp4P_-56" value="" style="endArrow=block;dashed=1;endFill=0;endSize=12;html=1;rounded=0;exitX=0.5;exitY=0;exitDx=0;exitDy=0;entryX=-0.002;entryY=1.056;entryDx=0;entryDy=0;entryPerimeter=0;" parent="WIyWlLk6GJQsqaUBKTNV-1" source="YPm3PpncCEhYX0uplSMa-96" target="YPm3PpncCEhYX0uplSMa-92" edge="1">
          <mxGeometry width="160" relative="1" as="geometry">
            <mxPoint x="80" y="1050" as="sourcePoint" />
            <mxPoint x="240" y="1050" as="targetPoint" />
          </mxGeometry>
        </mxCell>
        <mxCell id="27cs-0Nez81wQMzJp4P_-57" value="Extends" style="endArrow=block;endSize=16;endFill=0;html=1;rounded=0;exitX=0.5;exitY=0;exitDx=0;exitDy=0;entryX=0.498;entryY=1.034;entryDx=0;entryDy=0;entryPerimeter=0;" parent="WIyWlLk6GJQsqaUBKTNV-1" source="YPm3PpncCEhYX0uplSMa-242" target="YPm3PpncCEhYX0uplSMa-263" edge="1">
          <mxGeometry width="160" relative="1" as="geometry">
            <mxPoint x="650" y="-30" as="sourcePoint" />
            <mxPoint x="810" y="-30" as="targetPoint" />
          </mxGeometry>
        </mxCell>
        <mxCell id="27cs-0Nez81wQMzJp4P_-58" value="Extends" style="endArrow=block;endSize=16;endFill=0;html=1;rounded=0;exitX=0.5;exitY=0;exitDx=0;exitDy=0;entryX=1.017;entryY=1.034;entryDx=0;entryDy=0;entryPerimeter=0;" parent="WIyWlLk6GJQsqaUBKTNV-1" source="YPm3PpncCEhYX0uplSMa-51" target="YPm3PpncCEhYX0uplSMa-263" edge="1">
          <mxGeometry width="160" relative="1" as="geometry">
            <mxPoint x="390" y="50" as="sourcePoint" />
            <mxPoint x="604" y="-118" as="targetPoint" />
          </mxGeometry>
        </mxCell>
        <mxCell id="27cs-0Nez81wQMzJp4P_-59" value="Extends" style="endArrow=block;endSize=16;endFill=0;html=1;rounded=0;exitX=0.5;exitY=0;exitDx=0;exitDy=0;entryX=0.006;entryY=1.057;entryDx=0;entryDy=0;entryPerimeter=0;" parent="WIyWlLk6GJQsqaUBKTNV-1" source="YPm3PpncCEhYX0uplSMa-4" target="YPm3PpncCEhYX0uplSMa-263" edge="1">
          <mxGeometry width="160" relative="1" as="geometry">
            <mxPoint x="400" y="60" as="sourcePoint" />
            <mxPoint x="614" y="-108" as="targetPoint" />
          </mxGeometry>
        </mxCell>
      </root>
    </mxGraphModel>
  </diagram>
</mxfile>
